<svg width="274" height="64" viewBox="0 0 274 64" fill="none" xmlns="http://www.w3.org/2000/svg">
<mask id="mask0_7_7378" style="mask-type:luminance" maskUnits="userSpaceOnUse" x="0" y="0" width="274" height="64">
<rect width="273.659" height="64" fill="white"/>
</mask>
<g mask="url(#mask0_7_7378)">
<path fill-rule="evenodd" clip-rule="evenodd" d="M32.0011 4.94378e-06C16.7325 -0.0084276 3.58497 10.7715 0.600784 25.7455C-2.3834 40.7196 5.62714 55.7162 19.7324 61.5618V31.3905L24.2713 25.5482V63.0543C26.7999 63.6827 29.3956 64.0003 32.0011 64C32.7884 64.0001 33.5655 63.9626 34.3376 63.9056V19.706L38.8765 25.5482V63.2563C41.5627 62.6674 44.1611 61.732 46.6063 60.4738V12.1183L51.1452 17.9606V57.6507C62.1942 49.4033 66.7183 35.006 62.3727 21.9211C58.027 8.83619 45.7888 0.00583332 32.0011 0.00694939L32.0011 4.94378e-06Z" fill="url(#paint0_linear_7_7378)"/>
<path fill-rule="evenodd" clip-rule="evenodd" d="M273.351 43.1025C272.496 44.6279 271.277 45.9189 269.804 46.8611C268.166 47.8585 266.274 48.3569 264.358 48.2955C262.983 48.3098 261.62 48.053 260.345 47.5396C257.925 46.5671 256.007 44.6488 255.034 42.2287C254.519 40.941 254.262 39.5643 254.278 38.1774C254.271 36.8434 254.521 35.5207 255.015 34.2814C255.96 31.8672 257.819 29.9235 260.19 28.8732C261.441 28.3207 262.796 28.0436 264.164 28.0603C265.558 28.035 266.942 28.2921 268.234 28.8161C269.372 29.2843 270.392 29.9994 271.219 30.91C272.035 31.8277 272.655 32.9024 273.041 34.0682C273.464 35.343 273.673 36.6788 273.661 38.0219V38.4873C273.637 38.6283 273.624 38.7709 273.623 38.914C273.596 39.0542 273.583 39.1968 273.584 39.3396H259.279C259.358 40.0412 259.576 40.7201 259.919 41.3368C260.227 41.8747 260.635 42.3485 261.121 42.7325C261.588 43.1012 262.12 43.377 262.691 43.5453C263.257 43.7133 263.844 43.7983 264.435 43.7973C265.456 43.8373 266.465 43.5598 267.323 43.0029C268.072 42.4879 268.689 41.8041 269.125 41.0067L273.351 43.1025ZM268.738 35.7364C268.696 35.3453 268.585 34.9648 268.409 34.6129C268.197 34.1761 267.908 33.7816 267.556 33.4487C267.15 33.0669 266.677 32.7644 266.16 32.5566C265.524 32.3099 264.846 32.1916 264.164 32.2082C263.131 32.1915 262.121 32.5189 261.295 33.1388C260.446 33.7909 259.833 34.7029 259.551 35.7355L268.738 35.7364Z" fill="white"/>
<path fill-rule="evenodd" clip-rule="evenodd" d="M241.173 56.6702C239.958 56.6893 238.747 56.5127 237.588 56.147C236.614 55.834 235.693 55.3765 234.855 54.7897C234.122 54.2741 233.469 53.6535 232.917 52.9479C232.436 52.3413 232.057 51.6606 231.793 50.9326L236.639 48.9942C236.961 49.9498 237.588 50.7735 238.423 51.3388C240.503 52.6819 243.24 52.3785 244.974 50.6126C245.962 49.4075 246.46 47.875 246.37 46.3195V44.9988H246.06C245.454 45.8362 244.648 46.5091 243.716 46.9564C242.643 47.4574 241.469 47.7029 240.285 47.6736C239.145 47.6729 238.016 47.4378 236.97 46.9828C235.899 46.5215 234.932 45.8487 234.126 45.0049C230.359 40.9902 230.359 34.7396 234.126 30.7248C234.932 29.8815 235.899 29.2091 236.97 28.7478C238.016 28.2927 239.145 28.0576 240.285 28.0569C241.469 28.0283 242.643 28.2738 243.716 28.7742C244.648 29.2219 245.454 29.8947 246.06 30.7318H246.37V28.6767H251.216V46.3154C251.238 47.7892 250.989 49.2546 250.48 50.6379C250.028 51.8544 249.328 52.9637 248.424 53.8949C247.53 54.7969 246.453 55.4975 245.265 55.9499C243.958 56.443 242.57 56.6873 241.173 56.6702H241.173ZM241.368 43.1022C241.997 43.1006 242.621 42.9845 243.209 42.7599C243.808 42.5365 244.356 42.1932 244.818 41.751C245.298 41.2856 245.68 40.7293 245.942 40.1146C246.237 39.4096 246.383 38.6508 246.368 37.8867C246.381 37.117 246.236 36.3529 245.942 35.6416C245.683 35.0194 245.301 34.456 244.818 33.9858C244.356 33.5437 243.808 33.2004 243.209 32.977C242.621 32.752 241.998 32.6357 241.368 32.6336C240.745 32.6343 240.127 32.7508 239.546 32.9771C238.95 33.2057 238.409 33.5555 237.956 34.0041C237.479 34.4789 237.097 35.0411 236.832 35.6599C236.264 37.0899 236.264 38.6834 236.832 40.1135C237.094 40.7284 237.476 41.2849 237.956 41.7501C238.413 42.1891 238.954 42.5321 239.546 42.7588C240.126 42.9849 240.744 43.1013 241.367 43.1021L241.368 43.1022Z" fill="white"/>
<path fill-rule="evenodd" clip-rule="evenodd" d="M223.496 45.3899H223.186C222.656 46.2537 221.907 46.9623 221.015 47.4439C219.898 48.0457 218.64 48.3401 217.371 48.2973C216.174 48.3017 214.99 48.0436 213.902 47.5414C212.806 47.0398 211.818 46.3285 210.995 45.4476C210.131 44.5189 209.454 43.4334 208.999 42.2497C208.016 39.6248 208.016 36.7334 208.998 34.1085C209.454 32.9248 210.131 31.8393 210.995 30.9106C211.818 30.03 212.806 29.3187 213.902 28.8168C214.99 28.3148 216.174 28.0568 217.371 28.061C218.64 28.0182 219.897 28.3122 221.015 28.9134C221.907 29.3954 222.656 30.1038 223.186 30.9674H223.496L223.186 28.2539V19.9238H228.266V47.6805H223.496V45.3899ZM218.417 43.607C219.074 43.6098 219.726 43.4846 220.336 43.2382C220.939 42.9961 221.486 42.6335 221.945 42.1726C222.427 41.6822 222.809 41.103 223.069 40.467C223.637 38.9961 223.637 37.3664 223.069 35.8955C222.808 35.2596 222.426 34.6804 221.945 34.1899C221.486 33.7295 220.939 33.3669 220.336 33.1243C219.726 32.8783 219.074 32.7531 218.417 32.7555C217.757 32.7529 217.104 32.8849 216.498 33.1434C215.896 33.3978 215.35 33.7662 214.889 34.2285C214.407 34.7189 214.025 35.2982 213.764 35.9341C213.195 37.3793 213.195 38.9862 213.764 40.4314C214.025 41.0674 214.407 41.6467 214.889 42.137C215.35 42.5994 215.896 42.9678 216.498 43.2219C217.105 43.4796 217.758 43.6107 218.418 43.6071L218.417 43.607Z" fill="white"/>
<path fill-rule="evenodd" clip-rule="evenodd" d="M202.035 26.1235C201.171 26.1247 200.341 25.7836 199.728 25.1746C199.432 24.8798 199.195 24.5312 199.03 24.1476C198.693 23.3278 198.693 22.4084 199.03 21.5886C199.195 21.2051 199.432 20.8565 199.728 20.5616C200.341 19.9526 201.17 19.6111 202.035 19.6117C202.907 19.5987 203.747 19.9417 204.36 20.5616C204.98 21.169 205.329 22.0003 205.329 22.8681C205.329 23.7359 204.98 24.5673 204.36 25.1747C203.746 25.7941 202.907 26.1367 202.035 26.1235H202.035ZM199.515 47.6783V28.6815H204.595V47.6783H199.515Z" fill="white"/>
<path fill-rule="evenodd" clip-rule="evenodd" d="M183.295 28.6817H188.062V31.3178H188.372C188.611 30.8436 188.925 30.4113 189.303 30.0378C189.692 29.6473 190.128 29.3062 190.601 29.0219C191.089 28.7294 191.61 28.4952 192.152 28.324C192.684 28.1505 193.24 28.0608 193.8 28.0579C194.383 28.046 194.965 28.1185 195.527 28.2732C195.96 28.3959 196.371 28.5848 196.746 28.8331L195.389 33.3689C195.062 33.2079 194.717 33.0846 194.362 33.0011C193.91 32.9023 193.448 32.8566 192.985 32.8649C192.33 32.8551 191.68 32.994 191.086 33.2712C190.521 33.5407 190.024 33.9338 189.632 34.4212C189.218 34.9375 188.903 35.5253 188.701 36.1554C188.476 36.8539 188.365 37.5842 188.372 38.3182V47.6714H183.293L183.295 28.6817Z" fill="white"/>
<path fill-rule="evenodd" clip-rule="evenodd" d="M159.957 19.9202H170.812C171.947 19.9113 173.075 20.1014 174.145 20.482C175.13 20.8291 176.044 21.3546 176.839 22.0323C177.587 22.6738 178.2 23.458 178.642 24.3391C179.649 26.4391 179.495 28.911 178.236 30.8701C177.556 31.8383 176.643 32.6186 175.58 33.1387L175.58 33.4435C176.93 33.9107 178.119 34.7512 179.011 35.8674C179.901 37.0408 180.36 38.4853 180.309 39.9574C180.328 41.0652 180.082 42.1615 179.592 43.1552C179.118 44.0926 178.451 44.9185 177.634 45.5781C176.775 46.2674 175.796 46.7929 174.746 47.1282C173.6 47.4975 172.403 47.6806 171.199 47.6708H159.957V19.9202ZM170.421 31.2391C171.453 31.3059 172.468 30.9494 173.231 30.2515C173.871 29.6396 174.228 28.7908 174.22 27.906C174.232 27.03 173.881 26.188 173.251 25.5796C172.529 24.9041 171.563 24.5535 170.576 24.6095H165.192V31.2391H170.421ZM171.002 42.8688C172.1 42.9443 173.184 42.5899 174.026 41.8802C174.724 41.2233 175.105 40.2982 175.073 39.3406C175.099 38.3693 174.711 37.4328 174.007 36.7634C173.129 36.0197 171.994 35.6505 170.847 35.7353H165.187V42.8688H171.002Z" fill="white"/>
<path fill-rule="evenodd" clip-rule="evenodd" d="M136.747 19.9199H141.826V27.7127L141.517 31.1667H141.826C142.4 30.2322 143.209 29.4638 144.171 28.9379C145.218 28.3497 146.402 28.049 147.603 28.0663C150.058 28.0663 151.873 28.7896 153.05 30.2361C154.309 31.9483 154.933 34.0458 154.813 36.1679L154.813 47.6807H149.734V36.7875C149.811 35.705 149.479 34.6331 148.803 33.7835C148.13 33.0767 147.18 32.7012 146.206 32.7565C145.558 32.7442 144.917 32.8977 144.345 33.2024C143.8 33.5003 143.33 33.9169 142.968 34.4214C142.58 34.9672 142.291 35.5773 142.116 36.2236C141.918 36.9368 141.821 37.6739 141.825 38.4138V47.6786H136.746L136.747 19.9199Z" fill="white"/>
<path fill-rule="evenodd" clip-rule="evenodd" d="M122.703 56.6703C121.488 56.6895 120.277 56.5129 119.117 56.1471C118.144 55.8341 117.223 55.3766 116.385 54.7898C115.652 54.2741 114.999 53.6536 114.446 52.9481C113.965 52.3412 113.586 51.6606 113.322 50.9326L118.168 48.9943C118.49 49.9499 119.116 50.7736 119.951 51.3389C122.031 52.6816 124.768 52.3783 126.503 50.6126C127.49 49.4073 127.987 47.875 127.898 46.3197V44.9989H127.593C126.986 45.8363 126.18 46.5092 125.247 46.9565C124.174 47.4576 123 47.7032 121.817 47.6738C120.676 47.6729 119.548 47.4378 118.502 46.9828C117.43 46.5215 116.463 45.8487 115.657 45.005C111.89 40.9902 111.89 34.7396 115.657 30.7249C116.463 29.8817 117.43 29.2094 118.502 28.7479C119.548 28.2928 120.676 28.0577 121.817 28.057C123 28.0282 124.174 28.2737 125.247 28.7743C126.179 29.2221 126.986 29.8949 127.593 30.7319H127.898V28.6769H132.743V46.3155C132.765 47.7893 132.516 49.2547 132.007 50.6381C131.555 51.8546 130.855 52.9637 129.952 53.895C129.057 54.7972 127.98 55.4978 126.792 55.9501C125.486 56.4427 124.099 56.687 122.703 56.6703ZM122.897 43.1024C123.527 43.1007 124.151 42.9847 124.739 42.76C125.338 42.5364 125.885 42.1931 126.347 41.7512C126.827 41.2859 127.21 40.7295 127.472 40.1148C127.768 39.41 127.913 38.6511 127.899 37.8868C127.912 37.1171 127.766 36.353 127.472 35.6418C127.213 35.0195 126.83 34.4561 126.347 33.986C125.885 33.5441 125.338 33.2008 124.739 32.9771C124.151 32.7522 123.527 32.6358 122.897 32.6339C122.274 32.6345 121.656 32.7509 121.075 32.9771C120.48 33.2058 119.938 33.5555 119.485 34.0041C119.008 34.479 118.627 35.0411 118.362 35.6599C117.793 37.0901 117.793 38.6836 118.362 40.1136C118.623 40.7286 119.005 41.285 119.485 41.7503C119.942 42.1893 120.483 42.5322 121.075 42.759C121.656 42.9852 122.274 43.1016 122.897 43.1022L122.897 43.1024Z" fill="white"/>
<path fill-rule="evenodd" clip-rule="evenodd" d="M106.455 26.1232C105.591 26.1242 104.762 25.783 104.149 25.1743C103.853 24.8797 103.616 24.5312 103.451 24.1475C103.115 23.3275 103.115 22.4084 103.451 21.5883C103.616 21.2046 103.853 20.8561 104.149 20.5613C105.433 19.2947 107.497 19.2947 108.781 20.5613C109.401 21.1687 109.75 22 109.75 22.8678C109.75 23.7356 109.401 24.567 108.781 25.1744C108.167 25.7941 107.327 26.1367 106.455 26.1232ZM103.936 47.678V28.6812H109.015V47.678H103.936Z" fill="white"/>
<path fill-rule="evenodd" clip-rule="evenodd" d="M77 19.9199H82.2338V31.0071H93.9021V19.9199H99.1349V47.6766H93.9021V35.9697H82.2338V47.6766H77.0001L77 19.9199Z" fill="white"/>
</g>
<defs>
<linearGradient id="paint0_linear_7_7378" x1="-24.9574" y1="-14.08" x2="-23.5499" y2="98.624" gradientUnits="userSpaceOnUse">
<stop stop-color="white"/>
<stop offset="0.6" stop-color="white" stop-opacity="0.968627"/>
<stop offset="1" stop-color="white" stop-opacity="0.101961"/>
</linearGradient>
</defs>
</svg>
