<svg width="380" height="169" viewBox="0 0 380 169" fill="none" xmlns="http://www.w3.org/2000/svg">
<path d="M2.77326 54V26.658H14.2569C16.4963 26.658 18.3452 27.2569 19.8034 28.4548C21.2617 29.6266 21.9908 31.3322 21.9908 33.5716C21.9908 35.1601 21.6262 36.4881 20.8971 37.5557C20.194 38.5973 19.2956 39.3004 18.202 39.665C19.6081 39.9254 20.7799 40.6936 21.7174 41.9695C22.6808 43.2194 23.1626 44.7688 23.1626 46.6177C23.1626 49.1435 22.4074 51.0054 20.8971 52.2032C19.3868 53.4011 17.3166 54 14.6866 54H2.77326ZM7.26516 49.8206H14.0616C15.4938 49.8206 16.5484 49.5211 17.2255 48.9222C17.9285 48.2972 18.2801 47.3207 18.2801 45.9927C18.2801 44.7167 17.8765 43.7663 17.0692 43.1413C16.262 42.4903 15.2594 42.1648 14.0616 42.1648H7.26516V49.8206ZM7.26516 37.9463H13.4757C14.6735 37.9463 15.5719 37.6208 16.1708 36.9698C16.7698 36.3188 17.0692 35.4205 17.0692 34.2747C17.0692 33.1289 16.7437 32.2696 16.0927 31.6967C15.4678 31.1239 14.5694 30.8374 13.3976 30.8374H7.26516V37.9463ZM33.6188 54.4297C31.6658 54.4297 30.0643 53.8047 28.8144 52.5548C27.5905 51.3049 26.9786 49.456 26.9786 47.0083V35.2121H31.3923V46.0318C31.3923 47.464 31.6918 48.5576 32.2907 49.3128C32.9157 50.068 33.7229 50.4455 34.7124 50.4455C35.8322 50.4455 36.7436 50.0549 37.4466 49.2737C38.1497 48.4925 38.5013 47.3468 38.5013 45.8365V35.2121H42.915V54H38.97L38.7356 51.7736C38.2409 52.4767 37.5638 53.1016 36.7045 53.6485C35.8452 54.1693 34.8166 54.4297 33.6188 54.4297ZM48.3233 54V35.2121H52.698V54H48.3233ZM50.4716 32.1264C49.7165 32.1264 49.0655 31.853 48.5186 31.3061C47.9718 30.7593 47.6984 30.1083 47.6984 29.3531C47.6984 28.598 47.9718 27.947 48.5186 27.4001C49.0655 26.8533 49.7165 26.5799 50.4716 26.5799C51.2268 26.5799 51.8778 26.8533 52.4246 27.4001C52.9715 27.947 53.2449 28.598 53.2449 29.3531C53.2449 30.1083 52.9715 30.7593 52.4246 31.3061C51.8778 31.853 51.2268 32.1264 50.4716 32.1264ZM57.9974 54V26.1502H62.4112V54H57.9974ZM75.2756 54.4297C73.557 54.4297 72.0076 54.0391 70.6275 53.2579C69.2734 52.4767 68.1928 51.3569 67.3855 49.8987C66.6043 48.4144 66.2137 46.6437 66.2137 44.5865C66.2137 42.5294 66.6043 40.7717 67.3855 39.3134C68.1928 37.8292 69.2734 36.6964 70.6275 35.9152C72.0076 35.134 73.557 34.7434 75.2756 34.7434C77.2547 34.7434 78.8822 35.4595 80.1581 36.8917V26.1502H84.5719V54H80.744L80.5487 51.8517C79.8977 52.6589 79.1165 53.2969 78.2051 53.7656C77.3198 54.2083 76.3433 54.4297 75.2756 54.4297ZM75.4709 50.4455C76.8511 50.4455 77.9968 49.9378 78.9082 48.9222C79.8196 47.9066 80.2753 46.4614 80.2753 44.5865C80.2753 42.7117 79.8196 41.2664 78.9082 40.2509C77.9968 39.2353 76.8511 38.7275 75.4709 38.7275C74.0908 38.7275 72.9451 39.2353 72.0337 40.2509C71.1223 41.2664 70.6666 42.7117 70.6666 44.5865C70.6666 46.4614 71.1223 47.9066 72.0337 48.9222C72.9451 49.9378 74.0908 50.4455 75.4709 50.4455ZM89.9772 54V35.2121H94.3519V54H89.9772ZM92.1255 32.1264C91.3703 32.1264 90.7193 31.853 90.1725 31.3061C89.6256 30.7593 89.3522 30.1083 89.3522 29.3531C89.3522 28.598 89.6256 27.947 90.1725 27.4001C90.7193 26.8533 91.3703 26.5799 92.1255 26.5799C92.8806 26.5799 93.5316 26.8533 94.0785 27.4001C94.6253 27.947 94.8987 28.598 94.8987 29.3531C94.8987 30.1083 94.6253 30.7593 94.0785 31.3061C93.5316 31.853 92.8806 32.1264 92.1255 32.1264ZM99.6512 54V35.2121H103.596L103.831 37.4386C104.351 36.7094 105.042 36.0845 105.901 35.5637C106.76 35.0168 107.776 34.7434 108.948 34.7434C110.901 34.7434 112.489 35.3684 113.713 36.6183C114.963 37.8682 115.588 39.704 115.588 42.1258V54H111.174V43.1804C111.174 41.6961 110.874 40.5894 110.276 39.8603C109.677 39.1051 108.869 38.7275 107.854 38.7275C106.734 38.7275 105.823 39.1181 105.12 39.8993C104.417 40.6545 104.065 41.7872 104.065 43.2976V54H99.6512ZM128.097 61.7729C126.144 61.7729 124.477 61.4084 123.097 60.6793C121.717 59.9501 120.571 58.8174 119.66 57.281L123.214 54.9374C123.735 55.9009 124.386 56.617 125.167 57.0857C125.948 57.5545 126.925 57.7888 128.097 57.7888C129.633 57.7888 130.766 57.3201 131.495 56.3827C132.224 55.4452 132.589 53.9479 132.589 51.8908V50.8361C131.365 52.1121 129.815 52.7501 127.94 52.7501C126.3 52.7501 124.829 52.4116 123.527 51.7345C122.251 51.0314 121.248 50.0159 120.519 48.6878C119.79 47.3338 119.425 45.6802 119.425 43.7272C119.425 41.7482 119.79 40.0946 120.519 38.7666C121.248 37.4386 122.251 36.436 123.527 35.759C124.829 35.0819 126.3 34.7434 127.94 34.7434C130.024 34.7434 131.703 35.4856 132.979 36.9698L133.135 35.2121H136.963V51.8908C136.963 54.9895 136.234 57.4112 134.776 59.1559C133.344 60.9006 131.117 61.7729 128.097 61.7729ZM128.292 48.8831C129.646 48.8831 130.753 48.4274 131.612 47.516C132.471 46.5786 132.901 45.3157 132.901 43.7272C132.901 42.1127 132.471 40.8628 131.612 39.9775C130.753 39.0661 129.646 38.6104 128.292 38.6104C126.938 38.6104 125.857 39.0661 125.05 39.9775C124.269 40.8628 123.878 42.1127 123.878 43.7272C123.878 45.3157 124.269 46.5786 125.05 47.516C125.857 48.4274 126.938 48.8831 128.292 48.8831ZM160.405 54.4297C158.556 54.4297 157.137 54.0911 156.148 53.4141C155.184 52.7371 154.702 51.383 154.702 49.3519V39.001H151.109V35.2121H154.702V28.611H159.077V35.2121H164.272V39.001H159.077V48.2191C159.077 49.1045 159.285 49.7034 159.702 50.0159C160.145 50.3284 160.77 50.4846 161.577 50.4846C162.072 50.4846 162.566 50.4065 163.061 50.2502C163.582 50.094 163.986 49.9378 164.272 49.7815V53.8047C163.803 53.987 163.217 54.1302 162.514 54.2344C161.811 54.3646 161.108 54.4297 160.405 54.4297ZM167.739 54V26.1502H172.153V37.4386C172.57 36.7094 173.195 36.0845 174.028 35.5637C174.861 35.0168 175.864 34.7434 177.035 34.7434C178.988 34.7434 180.577 35.3684 181.801 36.6183C183.051 37.8682 183.676 39.704 183.676 42.1258V54H179.262V43.1804C179.262 41.6961 178.962 40.5894 178.364 39.8603C177.765 39.1051 176.957 38.7275 175.942 38.7275C174.822 38.7275 173.911 39.1181 173.208 39.8993C172.505 40.6545 172.153 41.7872 172.153 43.2976V54H167.739ZM196.692 54.4297C193.958 54.4297 191.745 53.6094 190.052 51.9689C188.36 50.3023 187.513 47.8415 187.513 44.5865C187.513 42.5554 187.891 40.8107 188.646 39.3525C189.401 37.8682 190.456 36.7355 191.81 35.9543C193.164 35.147 194.713 34.7434 196.458 34.7434C198.203 34.7434 199.687 35.1731 200.911 36.0324C202.135 36.8657 203.072 38.0114 203.723 39.4697C204.374 40.9279 204.7 42.5684 204.7 44.3912V45.4068H191.849C191.953 47.2817 192.448 48.6227 193.333 49.43C194.219 50.2112 195.364 50.6018 196.771 50.6018C197.994 50.6018 198.997 50.3153 199.778 49.7425C200.559 49.1435 201.236 48.2582 201.809 47.0864L205.051 49.3519C204.088 51.1486 202.903 52.4506 201.497 53.2579C200.117 54.0391 198.515 54.4297 196.692 54.4297ZM192.044 42.0086H200.364C200.156 40.7847 199.7 39.8473 198.997 39.1963C198.32 38.5192 197.448 38.1807 196.38 38.1807C195.234 38.1807 194.284 38.4932 193.529 39.1181C192.799 39.7431 192.305 40.7066 192.044 42.0086ZM220.197 54V26.658H238.79V30.8374H224.689V37.9463H237.579V42.1648H224.689V54H220.197ZM248.258 54.4297C246.305 54.4297 244.704 53.8047 243.454 52.5548C242.23 51.3049 241.618 49.456 241.618 47.0083V35.2121H246.032V46.0318C246.032 47.464 246.331 48.5576 246.93 49.3128C247.555 50.068 248.362 50.4455 249.352 50.4455C250.471 50.4455 251.383 50.0549 252.086 49.2737C252.789 48.4925 253.141 47.3468 253.141 45.8365V35.2121H257.554V54H253.609L253.375 51.7736C252.88 52.4767 252.203 53.1016 251.344 53.6485C250.484 54.1693 249.456 54.4297 248.258 54.4297ZM270.032 54.4297C268.184 54.4297 266.764 54.0911 265.775 53.4141C264.811 52.7371 264.33 51.383 264.33 49.3519V39.001H260.736V35.2121H264.33V28.611H268.704V35.2121H273.899V39.001H268.704V48.2191C268.704 49.1045 268.913 49.7034 269.329 50.0159C269.772 50.3284 270.397 50.4846 271.204 50.4846C271.699 50.4846 272.194 50.4065 272.689 50.2502C273.209 50.094 273.613 49.9378 273.899 49.7815V53.8047C273.431 53.987 272.845 54.1302 272.142 54.2344C271.439 54.3646 270.736 54.4297 270.032 54.4297ZM283.694 54.4297C281.741 54.4297 280.14 53.8047 278.89 52.5548C277.666 51.3049 277.054 49.456 277.054 47.0083V35.2121H281.468V46.0318C281.468 47.464 281.767 48.5576 282.366 49.3128C282.991 50.068 283.798 50.4455 284.788 50.4455C285.908 50.4455 286.819 50.0549 287.522 49.2737C288.225 48.4925 288.577 47.3468 288.577 45.8365V35.2121H292.991V54H289.046L288.811 51.7736C288.316 52.4767 287.639 53.1016 286.78 53.6485C285.921 54.1693 284.892 54.4297 283.694 54.4297ZM297.774 54V35.2121H301.758L302.031 37.8682C302.5 36.9308 303.229 36.1756 304.219 35.6027C305.234 35.0299 306.302 34.7434 307.422 34.7434C307.864 34.7434 308.268 34.7695 308.633 34.8215C308.997 34.8736 309.31 34.9387 309.57 35.0168V39.2744C309.232 39.1702 308.828 39.0921 308.359 39.04C307.917 38.9619 307.396 38.9228 306.797 38.9228C305.521 38.9228 304.427 39.3395 303.516 40.1728C302.63 41.006 302.188 42.1778 302.188 43.6882V54H297.774ZM320.891 54.4297C318.157 54.4297 315.943 53.6094 314.251 51.9689C312.558 50.3023 311.712 47.8415 311.712 44.5865C311.712 42.5554 312.09 40.8107 312.845 39.3525C313.6 37.8682 314.654 36.7355 316.009 35.9543C317.363 35.147 318.912 34.7434 320.657 34.7434C322.401 34.7434 323.886 35.1731 325.11 36.0324C326.333 36.8657 327.271 38.0114 327.922 39.4697C328.573 40.9279 328.898 42.5684 328.898 44.3912V45.4068H316.048C316.152 47.2817 316.647 48.6227 317.532 49.43C318.417 50.2112 319.563 50.6018 320.969 50.6018C322.193 50.6018 323.196 50.3153 323.977 49.7425C324.758 49.1435 325.435 48.2582 326.008 47.0864L329.25 49.3519C328.286 51.1486 327.102 52.4506 325.695 53.2579C324.315 54.0391 322.714 54.4297 320.891 54.4297ZM316.243 42.0086H324.563C324.354 40.7847 323.899 39.8473 323.196 39.1963C322.519 38.5192 321.646 38.1807 320.579 38.1807C319.433 38.1807 318.482 38.4932 317.727 39.1181C316.998 39.7431 316.503 40.7066 316.243 42.0086ZM335.714 54.4297C334.906 54.4297 334.203 54.1432 333.604 53.5703C333.032 52.9975 332.745 52.3074 332.745 51.5002C332.745 50.6669 333.032 49.9638 333.604 49.3909C334.203 48.818 334.906 48.5316 335.714 48.5316C336.521 48.5316 337.211 48.818 337.784 49.3909C338.383 49.9638 338.682 50.6669 338.682 51.5002C338.682 52.3074 338.383 52.9975 337.784 53.5703C337.211 54.1432 336.521 54.4297 335.714 54.4297ZM345.784 54.4297C344.977 54.4297 344.274 54.1432 343.675 53.5703C343.102 52.9975 342.815 52.3074 342.815 51.5002C342.815 50.6669 343.102 49.9638 343.675 49.3909C344.274 48.818 344.977 48.5316 345.784 48.5316C346.591 48.5316 347.281 48.818 347.854 49.3909C348.453 49.9638 348.752 50.6669 348.752 51.5002C348.752 52.3074 348.453 52.9975 347.854 53.5703C347.281 54.1432 346.591 54.4297 345.784 54.4297ZM355.854 54.4297C355.047 54.4297 354.344 54.1432 353.745 53.5703C353.172 52.9975 352.885 52.3074 352.885 51.5002C352.885 50.6669 353.172 49.9638 353.745 49.3909C354.344 48.818 355.047 48.5316 355.854 48.5316C356.661 48.5316 357.351 48.818 357.924 49.3909C358.523 49.9638 358.823 50.6669 358.823 51.5002C358.823 52.3074 358.523 52.9975 357.924 53.5703C357.351 54.1432 356.661 54.4297 355.854 54.4297Z" fill="white"/>
<path d="M1.344 105V93.8H2.32V104.056H8.512V105H1.344ZM13.2728 105.176C12.5901 105.176 11.9821 105.005 11.4488 104.664C10.9154 104.323 10.4941 103.853 10.1848 103.256C9.87542 102.648 9.72075 101.949 9.72075 101.16C9.72075 100.371 9.87542 99.6773 10.1848 99.08C10.4941 98.472 10.9154 97.9973 11.4488 97.656C11.9821 97.3147 12.5901 97.144 13.2728 97.144C13.9661 97.144 14.5794 97.3147 15.1128 97.656C15.6461 97.9973 16.0674 98.472 16.3768 99.08C16.6861 99.6773 16.8408 100.371 16.8408 101.16C16.8408 101.949 16.6861 102.648 16.3768 103.256C16.0674 103.853 15.6461 104.323 15.1128 104.664C14.5794 105.005 13.9661 105.176 13.2728 105.176ZM13.2728 104.264C13.7741 104.264 14.2168 104.136 14.6008 103.88C14.9954 103.624 15.3048 103.267 15.5288 102.808C15.7528 102.339 15.8648 101.789 15.8648 101.16C15.8648 100.531 15.7528 99.9867 15.5288 99.528C15.3048 99.0587 14.9954 98.696 14.6008 98.44C14.2168 98.184 13.7741 98.056 13.2728 98.056C12.5261 98.056 11.9074 98.3387 11.4168 98.904C10.9368 99.4587 10.6968 100.211 10.6968 101.16C10.6968 102.099 10.9368 102.851 11.4168 103.416C11.9074 103.981 12.5261 104.264 13.2728 104.264ZM18.7778 105V97.336H19.7057L19.7538 98.664C19.9671 98.216 20.3031 97.8533 20.7618 97.576C21.2311 97.288 21.7484 97.144 22.3138 97.144C22.4631 97.144 22.6124 97.1547 22.7618 97.176C22.9218 97.1867 23.0551 97.208 23.1618 97.24V98.184C23.0658 98.1627 22.9271 98.1413 22.7458 98.12C22.5751 98.0987 22.3991 98.088 22.2178 98.088C21.7698 98.088 21.3591 98.1947 20.9858 98.408C20.6124 98.6107 20.3138 98.888 20.0898 99.24C19.8764 99.5813 19.7698 99.9707 19.7698 100.408V105H18.7778ZM27.9294 105.176C27.236 105.176 26.6174 105.016 26.0734 104.696C25.54 104.365 25.1187 103.901 24.8094 103.304C24.5107 102.696 24.3614 101.981 24.3614 101.16C24.3614 100.36 24.5107 99.6613 24.8094 99.064C25.1187 98.4667 25.54 98.0027 26.0734 97.672C26.6067 97.3307 27.2147 97.16 27.8974 97.16C28.5907 97.16 29.1774 97.336 29.6574 97.688C30.148 98.0293 30.5214 98.4773 30.7774 99.032C31.0334 99.576 31.1614 100.152 31.1614 100.76V101.08H25.3374C25.316 102.04 25.54 102.819 26.0094 103.416C26.4894 104.003 27.1347 104.296 27.9454 104.296C28.5427 104.296 29.044 104.147 29.4494 103.848C29.8547 103.539 30.1854 103.085 30.4414 102.488L31.2414 102.952C30.5587 104.435 29.4547 105.176 27.9294 105.176ZM25.4014 100.248H30.2014C30.148 99.832 30.0147 99.4533 29.8014 99.112C29.5987 98.7707 29.332 98.4987 29.0014 98.296C28.6814 98.0933 28.3134 97.992 27.8974 97.992C27.2467 97.992 26.6974 98.1947 26.2494 98.6C25.812 98.9947 25.5294 99.544 25.4014 100.248ZM33.184 105V97.336H34.096L34.144 98.536C34.3147 98.1413 34.5973 97.8107 34.992 97.544C35.3867 97.2773 35.8347 97.144 36.336 97.144C36.9547 97.144 37.4613 97.288 37.856 97.576C38.2613 97.864 38.5333 98.264 38.672 98.776C38.8533 98.3067 39.1413 97.9173 39.536 97.608C39.9307 97.2987 40.4373 97.144 41.056 97.144C41.8453 97.144 42.464 97.3947 42.912 97.896C43.36 98.3867 43.584 99.128 43.584 100.12V105H42.608V100.264C42.608 99.4533 42.4533 98.8827 42.144 98.552C41.8347 98.2213 41.4187 98.056 40.896 98.056C40.4907 98.056 40.1333 98.1627 39.824 98.376C39.5253 98.5787 39.2907 98.8507 39.12 99.192C38.96 99.5227 38.88 99.8853 38.88 100.28V105H37.904V100.264C37.904 99.4533 37.744 98.8827 37.424 98.552C37.1147 98.2213 36.6987 98.056 36.176 98.056C35.7707 98.056 35.4133 98.1627 35.104 98.376C34.8053 98.5893 34.5707 98.8667 34.4 99.208C34.24 99.5387 34.16 99.8907 34.16 100.264V105H33.184ZM50.7216 105V97.336H51.6816V105H50.7216ZM51.2016 95.672C50.999 95.672 50.823 95.6027 50.6736 95.464C50.5243 95.3147 50.4496 95.1387 50.4496 94.936C50.4496 94.7227 50.5243 94.5467 50.6736 94.408C50.823 94.2693 50.999 94.2 51.2016 94.2C51.4043 94.2 51.575 94.2693 51.7136 94.408C51.8523 94.5467 51.9216 94.7227 51.9216 94.936C51.9216 95.1387 51.8523 95.3147 51.7136 95.464C51.575 95.6027 51.4043 95.672 51.2016 95.672ZM54.309 108.328V97.336H55.205L55.237 98.728C55.5143 98.2267 55.8823 97.8373 56.341 97.56C56.7997 97.2827 57.3223 97.144 57.909 97.144C58.5917 97.144 59.1997 97.3147 59.733 97.656C60.2663 97.9867 60.6823 98.456 60.981 99.064C61.2903 99.6613 61.445 100.36 61.445 101.16C61.445 101.96 61.2903 102.664 60.981 103.272C60.6823 103.869 60.2663 104.339 59.733 104.68C59.1997 105.011 58.5917 105.176 57.909 105.176C57.333 105.176 56.821 105.037 56.373 104.76C55.925 104.483 55.5623 104.109 55.285 103.64V108.328H54.309ZM57.893 104.264C58.3943 104.264 58.837 104.136 59.221 103.88C59.6157 103.624 59.925 103.267 60.149 102.808C60.373 102.339 60.485 101.789 60.485 101.16C60.485 100.531 60.373 99.9867 60.149 99.528C59.925 99.0587 59.6157 98.696 59.221 98.44C58.837 98.184 58.3943 98.056 57.893 98.056C57.1357 98.056 56.5117 98.3387 56.021 98.904C55.5303 99.4587 55.285 100.211 55.285 101.16C55.285 102.099 55.5303 102.851 56.021 103.416C56.5117 103.981 57.1357 104.264 57.893 104.264ZM66.0268 105.176C65.3441 105.176 64.7254 105.043 64.1708 104.776C63.6161 104.509 63.1681 104.131 62.8268 103.64L63.5308 103.048C63.7868 103.443 64.1334 103.747 64.5707 103.96C65.0188 104.173 65.5148 104.28 66.0588 104.28C66.5814 104.28 67.0241 104.168 67.3868 103.944C67.7601 103.709 67.9468 103.347 67.9468 102.856C67.9468 102.419 67.7708 102.115 67.4188 101.944C67.0668 101.773 66.5281 101.613 65.8028 101.464C65.3548 101.368 64.9281 101.251 64.5228 101.112C64.1281 100.973 63.8081 100.765 63.5628 100.488C63.3174 100.2 63.1948 99.8053 63.1948 99.304C63.1948 98.8453 63.3174 98.456 63.5628 98.136C63.8188 97.816 64.1548 97.5707 64.5707 97.4C64.9868 97.2293 65.4294 97.144 65.8988 97.144C67.1574 97.144 68.0801 97.592 68.6668 98.488L68.0108 99.08C67.5734 98.3867 66.8748 98.04 65.9148 98.04C65.3601 98.04 64.9334 98.1627 64.6348 98.408C64.3361 98.6427 64.1868 98.936 64.1868 99.288C64.1868 99.6827 64.3468 99.9653 64.6668 100.136C64.9974 100.296 65.5041 100.451 66.1868 100.6C66.6668 100.707 67.1148 100.84 67.5308 101C67.9574 101.16 68.2988 101.384 68.5548 101.672C68.8108 101.96 68.9388 102.36 68.9388 102.872C68.9388 103.555 68.6721 104.109 68.1388 104.536C67.6161 104.963 66.9121 105.176 66.0268 105.176ZM73.3229 105.176C72.5122 105.176 71.8562 104.915 71.3549 104.392C70.8535 103.869 70.6029 103.123 70.6029 102.152V97.336H71.5629V102.024C71.5629 102.771 71.7389 103.331 72.0909 103.704C72.4535 104.077 72.9175 104.264 73.4829 104.264C74.1335 104.264 74.6615 104.061 75.0669 103.656C75.4722 103.251 75.6749 102.755 75.6749 102.168V97.336H76.6509V104.984H75.7389L75.7069 103.912C75.4829 104.264 75.1629 104.563 74.7469 104.808C74.3309 105.053 73.8562 105.176 73.3229 105.176ZM79.0278 105V97.336H79.9398L79.9878 98.536C80.1584 98.1413 80.4411 97.8107 80.8358 97.544C81.2304 97.2773 81.6784 97.144 82.1798 97.144C82.7984 97.144 83.3051 97.288 83.6998 97.576C84.1051 97.864 84.3771 98.264 84.5158 98.776C84.6971 98.3067 84.9851 97.9173 85.3798 97.608C85.7744 97.2987 86.2811 97.144 86.8998 97.144C87.6891 97.144 88.3078 97.3947 88.7558 97.896C89.2038 98.3867 89.4278 99.128 89.4278 100.12V105H88.4518V100.264C88.4518 99.4533 88.2971 98.8827 87.9878 98.552C87.6784 98.2213 87.2624 98.056 86.7398 98.056C86.3344 98.056 85.9771 98.1627 85.6678 98.376C85.3691 98.5787 85.1344 98.8507 84.9638 99.192C84.8038 99.5227 84.7238 99.8853 84.7238 100.28V105H83.7478V100.264C83.7478 99.4533 83.5878 98.8827 83.2678 98.552C82.9584 98.2213 82.5424 98.056 82.0198 98.056C81.6144 98.056 81.2571 98.1627 80.9478 98.376C80.6491 98.5893 80.4144 98.8667 80.2438 99.208C80.0838 99.5387 80.0038 99.8907 80.0038 100.264V105H79.0278ZM99.4134 105.176C98.7307 105.176 98.1227 105.011 97.5894 104.68C97.056 104.339 96.6347 103.869 96.3254 103.272C96.016 102.664 95.8614 101.96 95.8614 101.16C95.8614 100.36 96.016 99.6613 96.3254 99.064C96.6347 98.4667 97.056 98.0027 97.5894 97.672C98.1227 97.3307 98.7307 97.16 99.4134 97.16C99.9894 97.16 100.501 97.2987 100.949 97.576C101.397 97.8427 101.755 98.2107 102.021 98.68V93.448H102.997V105H102.101L102.085 103.592C101.808 104.083 101.44 104.472 100.981 104.76C100.523 105.037 100 105.176 99.4134 105.176ZM99.4454 104.264C99.9467 104.264 100.389 104.136 100.773 103.88C101.168 103.624 101.477 103.267 101.701 102.808C101.925 102.339 102.037 101.789 102.037 101.16C102.037 100.531 101.925 99.9867 101.701 99.528C101.477 99.0693 101.168 98.712 100.773 98.456C100.389 98.2 99.9467 98.072 99.4454 98.072C98.944 98.072 98.496 98.2 98.1014 98.456C97.7067 98.712 97.3974 99.0693 97.1734 99.528C96.9494 99.9867 96.8374 100.531 96.8374 101.16C96.8374 101.789 96.9494 102.339 97.1734 102.808C97.3974 103.267 97.7067 103.624 98.1014 103.88C98.496 104.136 98.944 104.264 99.4454 104.264ZM108.507 105.176C107.824 105.176 107.216 105.005 106.683 104.664C106.15 104.323 105.728 103.853 105.419 103.256C105.11 102.648 104.955 101.949 104.955 101.16C104.955 100.371 105.11 99.6773 105.419 99.08C105.728 98.472 106.15 97.9973 106.683 97.656C107.216 97.3147 107.824 97.144 108.507 97.144C109.2 97.144 109.814 97.3147 110.347 97.656C110.88 97.9973 111.302 98.472 111.611 99.08C111.92 99.6773 112.075 100.371 112.075 101.16C112.075 101.949 111.92 102.648 111.611 103.256C111.302 103.853 110.88 104.323 110.347 104.664C109.814 105.005 109.2 105.176 108.507 105.176ZM108.507 104.264C109.008 104.264 109.451 104.136 109.835 103.88C110.23 103.624 110.539 103.267 110.763 102.808C110.987 102.339 111.099 101.789 111.099 101.16C111.099 100.531 110.987 99.9867 110.763 99.528C110.539 99.0587 110.23 98.696 109.835 98.44C109.451 98.184 109.008 98.056 108.507 98.056C107.76 98.056 107.142 98.3387 106.651 98.904C106.171 99.4587 105.931 100.211 105.931 101.16C105.931 102.099 106.171 102.851 106.651 103.416C107.142 103.981 107.76 104.264 108.507 104.264ZM114.012 105V93.448H114.988V105H114.012ZM120.492 105.176C119.809 105.176 119.201 105.005 118.668 104.664C118.134 104.323 117.713 103.853 117.404 103.256C117.094 102.648 116.94 101.949 116.94 101.16C116.94 100.371 117.094 99.6773 117.404 99.08C117.713 98.472 118.134 97.9973 118.668 97.656C119.201 97.3147 119.809 97.144 120.492 97.144C121.185 97.144 121.798 97.3147 122.332 97.656C122.865 97.9973 123.286 98.472 123.596 99.08C123.905 99.6773 124.06 100.371 124.06 101.16C124.06 101.949 123.905 102.648 123.596 103.256C123.286 103.853 122.865 104.323 122.332 104.664C121.798 105.005 121.185 105.176 120.492 105.176ZM120.492 104.264C120.993 104.264 121.436 104.136 121.82 103.88C122.214 103.624 122.524 103.267 122.748 102.808C122.972 102.339 123.084 101.789 123.084 101.16C123.084 100.531 122.972 99.9867 122.748 99.528C122.524 99.0587 122.214 98.696 121.82 98.44C121.436 98.184 120.993 98.056 120.492 98.056C119.745 98.056 119.126 98.3387 118.636 98.904C118.156 99.4587 117.916 100.211 117.916 101.16C117.916 102.099 118.156 102.851 118.636 103.416C119.126 103.981 119.745 104.264 120.492 104.264ZM125.997 105V97.336H126.924L126.973 98.664C127.186 98.216 127.522 97.8533 127.981 97.576C128.45 97.288 128.967 97.144 129.533 97.144C129.682 97.144 129.831 97.1547 129.981 97.176C130.141 97.1867 130.274 97.208 130.381 97.24V98.184C130.285 98.1627 130.146 98.1413 129.965 98.12C129.794 98.0987 129.618 98.088 129.437 98.088C128.989 98.088 128.578 98.1947 128.205 98.408C127.831 98.6107 127.533 98.888 127.309 99.24C127.095 99.5813 126.989 99.9707 126.989 100.408V105H125.997ZM139.121 105.176C138.438 105.176 137.819 105.043 137.265 104.776C136.71 104.509 136.262 104.131 135.921 103.64L136.625 103.048C136.881 103.443 137.227 103.747 137.664 103.96C138.113 104.173 138.609 104.28 139.153 104.28C139.675 104.28 140.118 104.168 140.481 103.944C140.854 103.709 141.041 103.347 141.041 102.856C141.041 102.419 140.865 102.115 140.513 101.944C140.161 101.773 139.622 101.613 138.897 101.464C138.449 101.368 138.022 101.251 137.617 101.112C137.222 100.973 136.902 100.765 136.657 100.488C136.411 100.2 136.289 99.8053 136.289 99.304C136.289 98.8453 136.411 98.456 136.657 98.136C136.913 97.816 137.249 97.5707 137.664 97.4C138.081 97.2293 138.523 97.144 138.993 97.144C140.251 97.144 141.174 97.592 141.761 98.488L141.105 99.08C140.667 98.3867 139.969 98.04 139.009 98.04C138.454 98.04 138.027 98.1627 137.729 98.408C137.43 98.6427 137.281 98.936 137.281 99.288C137.281 99.6827 137.441 99.9653 137.761 100.136C138.091 100.296 138.598 100.451 139.281 100.6C139.761 100.707 140.209 100.84 140.625 101C141.051 101.16 141.393 101.384 141.649 101.672C141.905 101.96 142.033 102.36 142.033 102.872C142.033 103.555 141.766 104.109 141.233 104.536C140.71 104.963 140.006 105.176 139.121 105.176ZM144.097 105V97.336H145.057V105H144.097ZM144.577 95.672C144.374 95.672 144.198 95.6027 144.049 95.464C143.899 95.3147 143.825 95.1387 143.825 94.936C143.825 94.7227 143.899 94.5467 144.049 94.408C144.198 94.2693 144.374 94.2 144.577 94.2C144.779 94.2 144.95 94.2693 145.089 94.408C145.227 94.5467 145.297 94.7227 145.297 94.936C145.297 95.1387 145.227 95.3147 145.089 95.464C144.95 95.6027 144.779 95.672 144.577 95.672ZM150.676 105.176C149.993 105.176 149.481 105.032 149.14 104.744C148.799 104.456 148.628 103.939 148.628 103.192V98.232H146.964V97.336H148.628V94.52H149.588V97.336H151.924V98.232H149.588V103.032C149.588 103.512 149.689 103.843 149.892 104.024C150.095 104.195 150.409 104.28 150.836 104.28C151.017 104.28 151.209 104.253 151.412 104.2C151.615 104.147 151.785 104.088 151.924 104.024V104.968C151.775 105.021 151.583 105.069 151.348 105.112C151.113 105.155 150.889 105.176 150.676 105.176ZM160.248 105.144C159.501 105.155 158.893 104.984 158.424 104.632C157.965 104.28 157.736 103.768 157.736 103.096C157.736 102.584 157.906 102.136 158.248 101.752C158.6 101.368 159.042 101.069 159.576 100.856C160.12 100.632 160.68 100.52 161.256 100.52C162.045 100.52 162.669 100.707 163.128 101.08V99.768C163.128 99.0533 162.978 98.5893 162.68 98.376C162.381 98.152 161.901 98.04 161.24 98.04C160.813 98.04 160.338 98.12 159.816 98.28C159.293 98.4293 158.85 98.6213 158.488 98.856L158.024 98.088C158.44 97.8213 158.941 97.5973 159.528 97.416C160.125 97.2347 160.696 97.144 161.24 97.144C162.21 97.144 162.925 97.3307 163.384 97.704C163.842 98.0773 164.072 98.7653 164.072 99.768V104.008C164.072 104.211 164.125 104.328 164.232 104.36C164.349 104.381 164.6 104.355 164.984 104.28V104.968C164.877 105.011 164.733 105.048 164.552 105.08C164.37 105.123 164.2 105.144 164.04 105.144C163.677 105.144 163.442 105.069 163.336 104.92C163.229 104.771 163.165 104.488 163.144 104.072C162.813 104.435 162.376 104.701 161.832 104.872C161.288 105.043 160.76 105.133 160.248 105.144ZM160.296 104.264C160.808 104.253 161.282 104.173 161.72 104.024C162.168 103.875 162.52 103.661 162.776 103.384C163.042 103.096 163.165 102.749 163.144 102.344C163.112 102.013 162.93 101.768 162.6 101.608C162.269 101.437 161.842 101.357 161.32 101.368C160.882 101.368 160.461 101.443 160.056 101.592C159.65 101.741 159.32 101.949 159.064 102.216C158.818 102.472 158.696 102.771 158.696 103.112C158.696 103.507 158.845 103.8 159.144 103.992C159.442 104.173 159.826 104.264 160.296 104.264ZM166.762 105V97.336H167.674L167.722 98.536C167.893 98.1413 168.175 97.8107 168.57 97.544C168.965 97.2773 169.413 97.144 169.914 97.144C170.533 97.144 171.039 97.288 171.434 97.576C171.839 97.864 172.111 98.264 172.25 98.776C172.431 98.3067 172.719 97.9173 173.114 97.608C173.509 97.2987 174.015 97.144 174.634 97.144C175.423 97.144 176.042 97.3947 176.49 97.896C176.938 98.3867 177.162 99.128 177.162 100.12V105H176.186V100.264C176.186 99.4533 176.031 98.8827 175.722 98.552C175.413 98.2213 174.997 98.056 174.474 98.056C174.069 98.056 173.711 98.1627 173.402 98.376C173.103 98.5787 172.869 98.8507 172.698 99.192C172.538 99.5227 172.458 99.8853 172.458 100.28V105H171.482V100.264C171.482 99.4533 171.322 98.8827 171.002 98.552C170.693 98.2213 170.277 98.056 169.754 98.056C169.349 98.056 168.991 98.1627 168.682 98.376C168.383 98.5893 168.149 98.8667 167.978 99.208C167.818 99.5387 167.738 99.8907 167.738 100.264V105H166.762ZM182.679 105.176C181.986 105.176 181.367 105.016 180.823 104.696C180.29 104.365 179.869 103.901 179.559 103.304C179.261 102.696 179.111 101.981 179.111 101.16C179.111 100.36 179.261 99.6613 179.559 99.064C179.869 98.4667 180.29 98.0027 180.823 97.672C181.357 97.3307 181.965 97.16 182.647 97.16C183.341 97.16 183.927 97.336 184.407 97.688C184.898 98.0293 185.271 98.4773 185.527 99.032C185.783 99.576 185.911 100.152 185.911 100.76V101.08H180.087C180.066 102.04 180.29 102.819 180.759 103.416C181.239 104.003 181.885 104.296 182.695 104.296C183.293 104.296 183.794 104.147 184.199 103.848C184.605 103.539 184.935 103.085 185.191 102.488L185.991 102.952C185.309 104.435 184.205 105.176 182.679 105.176ZM180.151 100.248H184.951C184.898 99.832 184.765 99.4533 184.551 99.112C184.349 98.7707 184.082 98.4987 183.751 98.296C183.431 98.0933 183.063 97.992 182.647 97.992C181.997 97.992 181.447 98.1947 180.999 98.6C180.562 98.9947 180.279 99.544 180.151 100.248ZM190.926 105.176C190.243 105.176 189.731 105.032 189.39 104.744C189.049 104.456 188.878 103.939 188.878 103.192V98.232H187.214V97.336H188.878V94.52H189.838V97.336H192.174V98.232H189.838V103.032C189.838 103.512 189.939 103.843 190.142 104.024C190.345 104.195 190.659 104.28 191.086 104.28C191.267 104.28 191.459 104.253 191.662 104.2C191.865 104.147 192.035 104.088 192.174 104.024V104.968C192.025 105.021 191.833 105.069 191.598 105.112C191.363 105.155 191.139 105.176 190.926 105.176ZM194.349 107.304L194.061 106.744C194.509 106.616 194.856 106.419 195.101 106.152C195.357 105.896 195.485 105.587 195.485 105.224C195.485 104.968 195.443 104.771 195.357 104.632C195.304 104.781 195.208 104.904 195.069 105C194.941 105.107 194.797 105.16 194.637 105.16C194.413 105.16 194.221 105.085 194.061 104.936C193.912 104.787 193.837 104.595 193.837 104.36C193.837 104.125 193.923 103.939 194.093 103.8C194.264 103.661 194.467 103.581 194.701 103.56C195.107 103.539 195.448 103.683 195.725 103.992C196.013 104.301 196.157 104.723 196.157 105.256C196.157 105.779 195.992 106.211 195.661 106.552C195.341 106.893 194.904 107.144 194.349 107.304ZM206.007 105.176C205.324 105.176 204.716 105.011 204.183 104.68C203.65 104.339 203.228 103.864 202.919 103.256C202.61 102.648 202.455 101.949 202.455 101.16C202.455 100.371 202.61 99.6773 202.919 99.08C203.228 98.472 203.65 98.0027 204.183 97.672C204.716 97.3307 205.324 97.16 206.007 97.16C206.551 97.16 207.052 97.272 207.511 97.496C207.98 97.7093 208.38 98.0293 208.711 98.456L207.943 99.032C207.463 98.392 206.818 98.072 206.007 98.072C205.26 98.072 204.642 98.3547 204.151 98.92C203.671 99.4747 203.431 100.221 203.431 101.16C203.431 102.099 203.671 102.851 204.151 103.416C204.642 103.981 205.26 104.264 206.007 104.264C206.818 104.264 207.463 103.944 207.943 103.304L208.711 103.88C208.028 104.744 207.127 105.176 206.007 105.176ZM213.46 105.176C212.778 105.176 212.17 105.005 211.636 104.664C211.103 104.323 210.682 103.853 210.372 103.256C210.063 102.648 209.908 101.949 209.908 101.16C209.908 100.371 210.063 99.6773 210.372 99.08C210.682 98.472 211.103 97.9973 211.636 97.656C212.17 97.3147 212.778 97.144 213.46 97.144C214.154 97.144 214.767 97.3147 215.3 97.656C215.834 97.9973 216.255 98.472 216.564 99.08C216.874 99.6773 217.028 100.371 217.028 101.16C217.028 101.949 216.874 102.648 216.564 103.256C216.255 103.853 215.834 104.323 215.3 104.664C214.767 105.005 214.154 105.176 213.46 105.176ZM213.46 104.264C213.962 104.264 214.404 104.136 214.788 103.88C215.183 103.624 215.492 103.267 215.716 102.808C215.94 102.339 216.052 101.789 216.052 101.16C216.052 100.531 215.94 99.9867 215.716 99.528C215.492 99.0587 215.183 98.696 214.788 98.44C214.404 98.184 213.962 98.056 213.46 98.056C212.714 98.056 212.095 98.3387 211.604 98.904C211.124 99.4587 210.884 100.211 210.884 101.16C210.884 102.099 211.124 102.851 211.604 103.416C212.095 103.981 212.714 104.264 213.46 104.264ZM218.965 105V97.336H219.877L219.909 98.424C220.155 98.0613 220.48 97.7573 220.885 97.512C221.301 97.2667 221.771 97.144 222.293 97.144C223.115 97.144 223.776 97.4053 224.277 97.928C224.779 98.4507 225.029 99.1973 225.029 100.168V105H224.069V100.312C224.069 99.5653 223.888 99.0053 223.525 98.632C223.173 98.2587 222.715 98.072 222.149 98.072C221.723 98.072 221.339 98.168 220.997 98.36C220.667 98.5413 220.405 98.792 220.213 99.112C220.032 99.4213 219.941 99.768 219.941 100.152V105H218.965ZM230.042 105.176C229.36 105.176 228.741 105.043 228.186 104.776C227.632 104.509 227.184 104.131 226.842 103.64L227.546 103.048C227.802 103.443 228.149 103.747 228.586 103.96C229.034 104.173 229.53 104.28 230.074 104.28C230.597 104.28 231.04 104.168 231.402 103.944C231.776 103.709 231.962 103.347 231.962 102.856C231.962 102.419 231.786 102.115 231.434 101.944C231.082 101.773 230.544 101.613 229.818 101.464C229.37 101.368 228.944 101.251 228.538 101.112C228.144 100.973 227.824 100.765 227.578 100.488C227.333 100.2 227.21 99.8053 227.21 99.304C227.21 98.8453 227.333 98.456 227.578 98.136C227.834 97.816 228.17 97.5707 228.586 97.4C229.002 97.2293 229.445 97.144 229.914 97.144C231.173 97.144 232.096 97.592 232.682 98.488L232.026 99.08C231.589 98.3867 230.89 98.04 229.93 98.04C229.376 98.04 228.949 98.1627 228.65 98.408C228.352 98.6427 228.202 98.936 228.202 99.288C228.202 99.6827 228.362 99.9653 228.682 100.136C229.013 100.296 229.52 100.451 230.202 100.6C230.682 100.707 231.13 100.84 231.546 101C231.973 101.16 232.314 101.384 232.57 101.672C232.826 101.96 232.954 102.36 232.954 102.872C232.954 103.555 232.688 104.109 232.154 104.536C231.632 104.963 230.928 105.176 230.042 105.176ZM237.883 105.176C237.189 105.176 236.571 105.016 236.027 104.696C235.493 104.365 235.072 103.901 234.763 103.304C234.464 102.696 234.315 101.981 234.315 101.16C234.315 100.36 234.464 99.6613 234.763 99.064C235.072 98.4667 235.493 98.0027 236.027 97.672C236.56 97.3307 237.168 97.16 237.851 97.16C238.544 97.16 239.131 97.336 239.611 97.688C240.101 98.0293 240.475 98.4773 240.731 99.032C240.987 99.576 241.115 100.152 241.115 100.76V101.08H235.291C235.269 102.04 235.493 102.819 235.963 103.416C236.443 104.003 237.088 104.296 237.899 104.296C238.496 104.296 238.997 104.147 239.403 103.848C239.808 103.539 240.139 103.085 240.395 102.488L241.195 102.952C240.512 104.435 239.408 105.176 237.883 105.176ZM235.355 100.248H240.155C240.101 99.832 239.968 99.4533 239.755 99.112C239.552 98.7707 239.285 98.4987 238.955 98.296C238.635 98.0933 238.267 97.992 237.851 97.992C237.2 97.992 236.651 98.1947 236.203 98.6C235.765 98.9947 235.483 99.544 235.355 100.248ZM246.257 105.176C245.574 105.176 244.966 105.011 244.433 104.68C243.9 104.339 243.478 103.864 243.169 103.256C242.86 102.648 242.705 101.949 242.705 101.16C242.705 100.371 242.86 99.6773 243.169 99.08C243.478 98.472 243.9 98.0027 244.433 97.672C244.966 97.3307 245.574 97.16 246.257 97.16C246.801 97.16 247.302 97.272 247.761 97.496C248.23 97.7093 248.63 98.0293 248.961 98.456L248.193 99.032C247.713 98.392 247.068 98.072 246.257 98.072C245.51 98.072 244.892 98.3547 244.401 98.92C243.921 99.4747 243.681 100.221 243.681 101.16C243.681 102.099 243.921 102.851 244.401 103.416C244.892 103.981 245.51 104.264 246.257 104.264C247.068 104.264 247.713 103.944 248.193 103.304L248.961 103.88C248.278 104.744 247.377 105.176 246.257 105.176ZM253.895 105.176C253.212 105.176 252.7 105.032 252.359 104.744C252.017 104.456 251.847 103.939 251.847 103.192V98.232H250.183V97.336H251.847V94.52H252.807V97.336H255.143V98.232H252.807V103.032C252.807 103.512 252.908 103.843 253.111 104.024C253.313 104.195 253.628 104.28 254.055 104.28C254.236 104.28 254.428 104.253 254.631 104.2C254.833 104.147 255.004 104.088 255.143 104.024V104.968C254.993 105.021 254.801 105.069 254.567 105.112C254.332 105.155 254.108 105.176 253.895 105.176ZM260.07 105.176C259.377 105.176 258.758 105.016 258.214 104.696C257.681 104.365 257.259 103.901 256.95 103.304C256.651 102.696 256.502 101.981 256.502 101.16C256.502 100.36 256.651 99.6613 256.95 99.064C257.259 98.4667 257.681 98.0027 258.214 97.672C258.747 97.3307 259.355 97.16 260.038 97.16C260.731 97.16 261.318 97.336 261.798 97.688C262.289 98.0293 262.662 98.4773 262.918 99.032C263.174 99.576 263.302 100.152 263.302 100.76V101.08H257.478C257.457 102.04 257.681 102.819 258.15 103.416C258.63 104.003 259.275 104.296 260.086 104.296C260.683 104.296 261.185 104.147 261.59 103.848C261.995 103.539 262.326 103.085 262.582 102.488L263.382 102.952C262.699 104.435 261.595 105.176 260.07 105.176ZM257.542 100.248H262.342C262.289 99.832 262.155 99.4533 261.942 99.112C261.739 98.7707 261.473 98.4987 261.142 98.296C260.822 98.0933 260.454 97.992 260.038 97.992C259.387 97.992 258.838 98.1947 258.39 98.6C257.953 98.9947 257.67 99.544 257.542 100.248ZM268.317 105.176C267.634 105.176 267.122 105.032 266.781 104.744C266.439 104.456 266.269 103.939 266.269 103.192V98.232H264.605V97.336H266.269V94.52H267.229V97.336H269.565V98.232H267.229V103.032C267.229 103.512 267.33 103.843 267.533 104.024C267.735 104.195 268.05 104.28 268.477 104.28C268.658 104.28 268.85 104.253 269.053 104.2C269.255 104.147 269.426 104.088 269.565 104.024V104.968C269.415 105.021 269.223 105.069 268.989 105.112C268.754 105.155 268.53 105.176 268.317 105.176ZM273.948 105.176C273.137 105.176 272.481 104.915 271.98 104.392C271.479 103.869 271.228 103.123 271.228 102.152V97.336H272.188V102.024C272.188 102.771 272.364 103.331 272.716 103.704C273.079 104.077 273.543 104.264 274.108 104.264C274.759 104.264 275.287 104.061 275.692 103.656C276.097 103.251 276.3 102.755 276.3 102.168V97.336H277.276V104.984H276.364L276.332 103.912C276.108 104.264 275.788 104.563 275.372 104.808C274.956 105.053 274.481 105.176 273.948 105.176ZM279.653 105V97.336H280.581L280.629 98.664C280.842 98.216 281.178 97.8533 281.637 97.576C282.106 97.288 282.623 97.144 283.189 97.144C283.338 97.144 283.487 97.1547 283.637 97.176C283.797 97.1867 283.93 97.208 284.037 97.24V98.184C283.941 98.1627 283.802 98.1413 283.621 98.12C283.45 98.0987 283.274 98.088 283.093 98.088C282.645 98.088 282.234 98.1947 281.861 98.408C281.487 98.6107 281.189 98.888 280.965 99.24C280.751 99.5813 280.645 99.9707 280.645 100.408V105H279.653ZM292.201 105.144C291.454 105.155 290.846 104.984 290.377 104.632C289.918 104.28 289.689 103.768 289.689 103.096C289.689 102.584 289.859 102.136 290.201 101.752C290.553 101.368 290.995 101.069 291.529 100.856C292.073 100.632 292.633 100.52 293.209 100.52C293.998 100.52 294.622 100.707 295.081 101.08V99.768C295.081 99.0533 294.931 98.5893 294.633 98.376C294.334 98.152 293.854 98.04 293.193 98.04C292.766 98.04 292.291 98.12 291.769 98.28C291.246 98.4293 290.803 98.6213 290.441 98.856L289.977 98.088C290.393 97.8213 290.894 97.5973 291.481 97.416C292.078 97.2347 292.649 97.144 293.193 97.144C294.163 97.144 294.878 97.3307 295.337 97.704C295.795 98.0773 296.025 98.7653 296.025 99.768V104.008C296.025 104.211 296.078 104.328 296.185 104.36C296.302 104.381 296.553 104.355 296.937 104.28V104.968C296.83 105.011 296.686 105.048 296.505 105.08C296.323 105.123 296.153 105.144 295.993 105.144C295.63 105.144 295.395 105.069 295.289 104.92C295.182 104.771 295.118 104.488 295.097 104.072C294.766 104.435 294.329 104.701 293.785 104.872C293.241 105.043 292.713 105.133 292.201 105.144ZM292.249 104.264C292.761 104.253 293.235 104.173 293.673 104.024C294.121 103.875 294.473 103.661 294.729 103.384C294.995 103.096 295.118 102.749 295.097 102.344C295.065 102.013 294.883 101.768 294.553 101.608C294.222 101.437 293.795 101.357 293.273 101.368C292.835 101.368 292.414 101.443 292.009 101.592C291.603 101.741 291.273 101.949 291.017 102.216C290.771 102.472 290.649 102.771 290.649 103.112C290.649 103.507 290.798 103.8 291.097 103.992C291.395 104.173 291.779 104.264 292.249 104.264ZM301.523 105.176C300.84 105.176 300.232 105.011 299.699 104.68C299.165 104.339 298.744 103.869 298.435 103.272C298.125 102.664 297.971 101.96 297.971 101.16C297.971 100.36 298.125 99.6613 298.435 99.064C298.744 98.4667 299.165 98.0027 299.699 97.672C300.232 97.3307 300.84 97.16 301.523 97.16C302.099 97.16 302.611 97.2987 303.059 97.576C303.507 97.8427 303.864 98.2107 304.131 98.68V93.448H305.107V105H304.211L304.195 103.592C303.917 104.083 303.549 104.472 303.091 104.76C302.632 105.037 302.109 105.176 301.523 105.176ZM301.555 104.264C302.056 104.264 302.499 104.136 302.883 103.88C303.277 103.624 303.587 103.267 303.811 102.808C304.035 102.339 304.147 101.789 304.147 101.16C304.147 100.531 304.035 99.9867 303.811 99.528C303.587 99.0693 303.277 98.712 302.883 98.456C302.499 98.2 302.056 98.072 301.555 98.072C301.053 98.072 300.605 98.2 300.211 98.456C299.816 98.712 299.507 99.0693 299.283 99.528C299.059 99.9867 298.947 100.531 298.947 101.16C298.947 101.789 299.059 102.339 299.283 102.808C299.507 103.267 299.816 103.624 300.211 103.88C300.605 104.136 301.053 104.264 301.555 104.264ZM307.769 105V97.336H308.729V105H307.769ZM308.249 95.672C308.046 95.672 307.87 95.6027 307.721 95.464C307.571 95.3147 307.497 95.1387 307.497 94.936C307.497 94.7227 307.571 94.5467 307.721 94.408C307.87 94.2693 308.046 94.2 308.249 94.2C308.451 94.2 308.622 94.2693 308.761 94.408C308.899 94.5467 308.969 94.7227 308.969 94.936C308.969 95.1387 308.899 95.3147 308.761 95.464C308.622 95.6027 308.451 95.672 308.249 95.672ZM311.356 108.328V97.336H312.252L312.284 98.728C312.561 98.2267 312.929 97.8373 313.388 97.56C313.847 97.2827 314.369 97.144 314.956 97.144C315.639 97.144 316.247 97.3147 316.78 97.656C317.313 97.9867 317.729 98.456 318.028 99.064C318.337 99.6613 318.492 100.36 318.492 101.16C318.492 101.96 318.337 102.664 318.028 103.272C317.729 103.869 317.313 104.339 316.78 104.68C316.247 105.011 315.639 105.176 314.956 105.176C314.38 105.176 313.868 105.037 313.42 104.76C312.972 104.483 312.609 104.109 312.332 103.64V108.328H311.356ZM314.94 104.264C315.441 104.264 315.884 104.136 316.268 103.88C316.663 103.624 316.972 103.267 317.196 102.808C317.42 102.339 317.532 101.789 317.532 101.16C317.532 100.531 317.42 99.9867 317.196 99.528C316.972 99.0587 316.663 98.696 316.268 98.44C315.884 98.184 315.441 98.056 314.94 98.056C314.183 98.056 313.559 98.3387 313.068 98.904C312.577 99.4587 312.332 100.211 312.332 101.16C312.332 102.099 312.577 102.851 313.068 103.416C313.559 103.981 314.183 104.264 314.94 104.264ZM320.722 105V97.336H321.682V105H320.722ZM321.202 95.672C320.999 95.672 320.823 95.6027 320.674 95.464C320.524 95.3147 320.45 95.1387 320.45 94.936C320.45 94.7227 320.524 94.5467 320.674 94.408C320.823 94.2693 320.999 94.2 321.202 94.2C321.404 94.2 321.575 94.2693 321.714 94.408C321.852 94.5467 321.922 94.7227 321.922 94.936C321.922 95.1387 321.852 95.3147 321.714 95.464C321.575 95.6027 321.404 95.672 321.202 95.672ZM326.933 105.176C326.25 105.176 325.632 105.043 325.077 104.776C324.522 104.509 324.074 104.131 323.733 103.64L324.437 103.048C324.693 103.443 325.04 103.747 325.477 103.96C325.925 104.173 326.421 104.28 326.965 104.28C327.488 104.28 327.93 104.168 328.293 103.944C328.666 103.709 328.853 103.347 328.853 102.856C328.853 102.419 328.677 102.115 328.325 101.944C327.973 101.773 327.434 101.613 326.709 101.464C326.261 101.368 325.834 101.251 325.429 101.112C325.034 100.973 324.714 100.765 324.469 100.488C324.224 100.2 324.101 99.8053 324.101 99.304C324.101 98.8453 324.224 98.456 324.469 98.136C324.725 97.816 325.061 97.5707 325.477 97.4C325.893 97.2293 326.336 97.144 326.805 97.144C328.064 97.144 328.986 97.592 329.573 98.488L328.917 99.08C328.48 98.3867 327.781 98.04 326.821 98.04C326.266 98.04 325.84 98.1627 325.541 98.408C325.242 98.6427 325.093 98.936 325.093 99.288C325.093 99.6827 325.253 99.9653 325.573 100.136C325.904 100.296 326.41 100.451 327.093 100.6C327.573 100.707 328.021 100.84 328.437 101C328.864 101.16 329.205 101.384 329.461 101.672C329.717 101.96 329.845 102.36 329.845 102.872C329.845 103.555 329.578 104.109 329.045 104.536C328.522 104.963 327.818 105.176 326.933 105.176ZM334.757 105.176C334.074 105.176 333.466 105.011 332.933 104.68C332.4 104.339 331.978 103.864 331.669 103.256C331.36 102.648 331.205 101.949 331.205 101.16C331.205 100.371 331.36 99.6773 331.669 99.08C331.978 98.472 332.4 98.0027 332.933 97.672C333.466 97.3307 334.074 97.16 334.757 97.16C335.301 97.16 335.802 97.272 336.261 97.496C336.73 97.7093 337.13 98.0293 337.461 98.456L336.693 99.032C336.213 98.392 335.568 98.072 334.757 98.072C334.01 98.072 333.392 98.3547 332.901 98.92C332.421 99.4747 332.181 100.221 332.181 101.16C332.181 102.099 332.421 102.851 332.901 103.416C333.392 103.981 334.01 104.264 334.757 104.264C335.568 104.264 336.213 103.944 336.693 103.304L337.461 103.88C336.778 104.744 335.877 105.176 334.757 105.176ZM339.675 105V97.336H340.635V105H339.675ZM340.155 95.672C339.952 95.672 339.776 95.6027 339.627 95.464C339.477 95.3147 339.403 95.1387 339.403 94.936C339.403 94.7227 339.477 94.5467 339.627 94.408C339.776 94.2693 339.952 94.2 340.155 94.2C340.357 94.2 340.528 94.2693 340.667 94.408C340.805 94.5467 340.875 94.7227 340.875 94.936C340.875 95.1387 340.805 95.3147 340.667 95.464C340.528 95.6027 340.357 95.672 340.155 95.672ZM343.262 105V97.336H344.174L344.206 98.424C344.451 98.0613 344.777 97.7573 345.182 97.512C345.598 97.2667 346.067 97.144 346.59 97.144C347.411 97.144 348.073 97.4053 348.574 97.928C349.075 98.4507 349.326 99.1973 349.326 100.168V105H348.366V100.312C348.366 99.5653 348.185 99.0053 347.822 98.632C347.47 98.2587 347.011 98.072 346.446 98.072C346.019 98.072 345.635 98.168 345.294 98.36C344.963 98.5413 344.702 98.792 344.51 99.112C344.329 99.4213 344.238 99.768 344.238 100.152V105H343.262ZM354.723 108.456C353.305 108.456 352.238 107.901 351.523 106.792L352.323 106.264C352.857 107.107 353.657 107.528 354.723 107.528C355.513 107.528 356.115 107.267 356.531 106.744C356.947 106.232 357.155 105.459 357.155 104.424V103.048C356.889 103.464 356.542 103.795 356.115 104.04C355.689 104.275 355.203 104.392 354.659 104.392C354.009 104.392 353.427 104.243 352.915 103.944C352.414 103.645 352.014 103.224 351.715 102.68C351.427 102.136 351.283 101.496 351.283 100.76C351.283 100.024 351.427 99.3893 351.715 98.856C352.014 98.312 352.414 97.8907 352.915 97.592C353.427 97.2933 354.009 97.144 354.659 97.144C355.214 97.144 355.71 97.272 356.147 97.528C356.585 97.7733 356.937 98.1147 357.203 98.552L357.219 97.336H358.115V104.424C358.115 105.811 357.801 106.829 357.171 107.48C356.553 108.131 355.737 108.456 354.723 108.456ZM354.707 103.496C355.187 103.496 355.614 103.384 355.987 103.16C356.361 102.925 356.654 102.605 356.867 102.2C357.081 101.784 357.187 101.304 357.187 100.76C357.187 100.216 357.081 99.7413 356.867 99.336C356.654 98.9307 356.361 98.616 355.987 98.392C355.614 98.1573 355.187 98.04 354.707 98.04C354.238 98.04 353.817 98.1573 353.443 98.392C353.081 98.616 352.793 98.9307 352.579 99.336C352.366 99.7413 352.259 100.216 352.259 100.76C352.259 101.304 352.366 101.784 352.579 102.2C352.793 102.605 353.081 102.925 353.443 103.16C353.817 103.384 354.238 103.496 354.707 103.496ZM4.32 133.176C3.62667 133.176 3.008 133.016 2.464 132.696C1.93067 132.365 1.50933 131.901 1.2 131.304C0.901333 130.696 0.752 129.981 0.752 129.16C0.752 128.36 0.901333 127.661 1.2 127.064C1.50933 126.467 1.93067 126.003 2.464 125.672C2.99733 125.331 3.60533 125.16 4.288 125.16C4.98133 125.16 5.568 125.336 6.048 125.688C6.53867 126.029 6.912 126.477 7.168 127.032C7.424 127.576 7.552 128.152 7.552 128.76V129.08H1.728C1.70667 130.04 1.93067 130.819 2.4 131.416C2.88 132.003 3.52533 132.296 4.336 132.296C4.93333 132.296 5.43467 132.147 5.84 131.848C6.24533 131.539 6.576 131.085 6.832 130.488L7.632 130.952C6.94933 132.435 5.84533 133.176 4.32 133.176ZM1.792 128.248H6.592C6.53867 127.832 6.40533 127.453 6.192 127.112C5.98933 126.771 5.72267 126.499 5.392 126.296C5.072 126.093 4.704 125.992 4.288 125.992C3.63733 125.992 3.088 126.195 2.64 126.6C2.20267 126.995 1.92 127.544 1.792 128.248ZM9.57463 133V121.448H10.5506V133H9.57463ZM13.206 133V125.336H14.166V133H13.206ZM13.686 123.672C13.4833 123.672 13.3073 123.603 13.158 123.464C13.0087 123.315 12.934 123.139 12.934 122.936C12.934 122.723 13.0087 122.547 13.158 122.408C13.3073 122.269 13.4833 122.2 13.686 122.2C13.8887 122.2 14.0593 122.269 14.198 122.408C14.3367 122.547 14.406 122.723 14.406 122.936C14.406 123.139 14.3367 123.315 14.198 123.464C14.0593 123.603 13.8887 123.672 13.686 123.672ZM19.7854 133.176C19.1027 133.176 18.5907 133.032 18.2494 132.744C17.908 132.456 17.7374 131.939 17.7374 131.192V126.232H16.0734V125.336H17.7374V122.52H18.6974V125.336H21.0334V126.232H18.6974V131.032C18.6974 131.512 18.7987 131.843 19.0014 132.024C19.204 132.195 19.5187 132.28 19.9454 132.28C20.1267 132.28 20.3187 132.253 20.5214 132.2C20.724 132.147 20.8947 132.088 21.0334 132.024V132.968C20.884 133.021 20.692 133.069 20.4574 133.112C20.2227 133.155 19.9987 133.176 19.7854 133.176ZM23.2086 135.304L22.9206 134.744C23.3686 134.616 23.7153 134.419 23.9606 134.152C24.2166 133.896 24.3446 133.587 24.3446 133.224C24.3446 132.968 24.302 132.771 24.2166 132.632C24.1633 132.781 24.0673 132.904 23.9286 133C23.8006 133.107 23.6566 133.16 23.4966 133.16C23.2726 133.16 23.0806 133.085 22.9206 132.936C22.7713 132.787 22.6966 132.595 22.6966 132.36C22.6966 132.125 22.782 131.939 22.9526 131.8C23.1233 131.661 23.326 131.581 23.5606 131.56C23.966 131.539 24.3073 131.683 24.5846 131.992C24.8726 132.301 25.0166 132.723 25.0166 133.256C25.0166 133.779 24.8513 134.211 24.5206 134.552C24.2006 134.893 23.7633 135.144 23.2086 135.304ZM34.3705 133.176C33.6878 133.176 33.0692 133.043 32.5145 132.776C31.9598 132.509 31.5118 132.131 31.1705 131.64L31.8745 131.048C32.1305 131.443 32.4772 131.747 32.9145 131.96C33.3625 132.173 33.8585 132.28 34.4025 132.28C34.9252 132.28 35.3678 132.168 35.7305 131.944C36.1038 131.709 36.2905 131.347 36.2905 130.856C36.2905 130.419 36.1145 130.115 35.7625 129.944C35.4105 129.773 34.8718 129.613 34.1465 129.464C33.6985 129.368 33.2718 129.251 32.8665 129.112C32.4718 128.973 32.1518 128.765 31.9065 128.488C31.6612 128.2 31.5385 127.805 31.5385 127.304C31.5385 126.845 31.6612 126.456 31.9065 126.136C32.1625 125.816 32.4985 125.571 32.9145 125.4C33.3305 125.229 33.7732 125.144 34.2425 125.144C35.5012 125.144 36.4238 125.592 37.0105 126.488L36.3545 127.08C35.9172 126.387 35.2185 126.04 34.2585 126.04C33.7038 126.04 33.2772 126.163 32.9785 126.408C32.6798 126.643 32.5305 126.936 32.5305 127.288C32.5305 127.683 32.6905 127.965 33.0105 128.136C33.3412 128.296 33.8478 128.451 34.5305 128.6C35.0105 128.707 35.4585 128.84 35.8745 129C36.3012 129.16 36.6425 129.384 36.8985 129.672C37.1545 129.96 37.2825 130.36 37.2825 130.872C37.2825 131.555 37.0158 132.109 36.4825 132.536C35.9598 132.963 35.2558 133.176 34.3705 133.176ZM42.2106 133.176C41.5173 133.176 40.8986 133.016 40.3546 132.696C39.8213 132.365 39.4 131.901 39.0906 131.304C38.792 130.696 38.6426 129.981 38.6426 129.16C38.6426 128.36 38.792 127.661 39.0906 127.064C39.4 126.467 39.8213 126.003 40.3546 125.672C40.888 125.331 41.496 125.16 42.1786 125.16C42.872 125.16 43.4586 125.336 43.9386 125.688C44.4293 126.029 44.8026 126.477 45.0586 127.032C45.3146 127.576 45.4426 128.152 45.4426 128.76V129.08H39.6186C39.5973 130.04 39.8213 130.819 40.2906 131.416C40.7706 132.003 41.416 132.296 42.2266 132.296C42.824 132.296 43.3253 132.147 43.7306 131.848C44.136 131.539 44.4666 131.085 44.7226 130.488L45.5226 130.952C44.84 132.435 43.736 133.176 42.2106 133.176ZM39.6826 128.248H44.4826C44.4293 127.832 44.296 127.453 44.0826 127.112C43.88 126.771 43.6133 126.499 43.2826 126.296C42.9626 126.093 42.5946 125.992 42.1786 125.992C41.528 125.992 40.9786 126.195 40.5306 126.6C40.0933 126.995 39.8106 127.544 39.6826 128.248ZM50.5853 133.176C49.9026 133.176 49.2946 133.011 48.7613 132.68C48.2279 132.339 47.8066 131.869 47.4973 131.272C47.1879 130.664 47.0333 129.96 47.0333 129.16C47.0333 128.36 47.1879 127.661 47.4973 127.064C47.8066 126.467 48.2279 126.003 48.7613 125.672C49.2946 125.331 49.9026 125.16 50.5853 125.16C51.1613 125.16 51.6733 125.299 52.1213 125.576C52.5693 125.843 52.9266 126.211 53.1933 126.68V121.448H54.1693V133H53.2733L53.2573 131.592C52.9799 132.083 52.6119 132.472 52.1533 132.76C51.6946 133.037 51.1719 133.176 50.5853 133.176ZM50.6173 132.264C51.1186 132.264 51.5613 132.136 51.9453 131.88C52.3399 131.624 52.6493 131.267 52.8733 130.808C53.0973 130.339 53.2093 129.789 53.2093 129.16C53.2093 128.531 53.0973 127.987 52.8733 127.528C52.6493 127.069 52.3399 126.712 51.9453 126.456C51.5613 126.2 51.1186 126.072 50.6173 126.072C50.1159 126.072 49.6679 126.2 49.2733 126.456C48.8786 126.712 48.5693 127.069 48.3453 127.528C48.1213 127.987 48.0093 128.531 48.0093 129.16C48.0093 129.789 48.1213 130.339 48.3453 130.808C48.5693 131.267 48.8786 131.624 49.2733 131.88C49.6679 132.136 50.1159 132.264 50.6173 132.264ZM64.1634 133.176C63.4807 133.176 62.8727 133.011 62.3394 132.68C61.806 132.339 61.3847 131.869 61.0754 131.272C60.766 130.664 60.6114 129.96 60.6114 129.16C60.6114 128.36 60.766 127.661 61.0754 127.064C61.3847 126.467 61.806 126.003 62.3394 125.672C62.8727 125.331 63.4807 125.16 64.1634 125.16C64.7394 125.16 65.2514 125.299 65.6994 125.576C66.1474 125.843 66.5047 126.211 66.7714 126.68V121.448H67.7474V133H66.8514L66.8354 131.592C66.558 132.083 66.19 132.472 65.7314 132.76C65.2727 133.037 64.75 133.176 64.1634 133.176ZM64.1954 132.264C64.6967 132.264 65.1394 132.136 65.5234 131.88C65.918 131.624 66.2274 131.267 66.4514 130.808C66.6754 130.339 66.7874 129.789 66.7874 129.16C66.7874 128.531 66.6754 127.987 66.4514 127.528C66.2274 127.069 65.918 126.712 65.5234 126.456C65.1394 126.2 64.6967 126.072 64.1954 126.072C63.694 126.072 63.246 126.2 62.8514 126.456C62.4567 126.712 62.1474 127.069 61.9234 127.528C61.6994 127.987 61.5874 128.531 61.5874 129.16C61.5874 129.789 61.6994 130.339 61.9234 130.808C62.1474 131.267 62.4567 131.624 62.8514 131.88C63.246 132.136 63.694 132.264 64.1954 132.264ZM73.2571 133.176C72.5745 133.176 71.9665 133.005 71.4331 132.664C70.8998 132.323 70.4785 131.853 70.1691 131.256C69.8598 130.648 69.7051 129.949 69.7051 129.16C69.7051 128.371 69.8598 127.677 70.1691 127.08C70.4785 126.472 70.8998 125.997 71.4331 125.656C71.9665 125.315 72.5745 125.144 73.2571 125.144C73.9505 125.144 74.5638 125.315 75.0971 125.656C75.6305 125.997 76.0518 126.472 76.3611 127.08C76.6705 127.677 76.8251 128.371 76.8251 129.16C76.8251 129.949 76.6705 130.648 76.3611 131.256C76.0518 131.853 75.6305 132.323 75.0971 132.664C74.5638 133.005 73.9505 133.176 73.2571 133.176ZM73.2571 132.264C73.7585 132.264 74.2011 132.136 74.5851 131.88C74.9798 131.624 75.2891 131.267 75.5131 130.808C75.7371 130.339 75.8491 129.789 75.8491 129.16C75.8491 128.531 75.7371 127.987 75.5131 127.528C75.2891 127.059 74.9798 126.696 74.5851 126.44C74.2011 126.184 73.7585 126.056 73.2571 126.056C72.5105 126.056 71.8918 126.339 71.4011 126.904C70.9211 127.459 70.6811 128.211 70.6811 129.16C70.6811 130.099 70.9211 130.851 71.4011 131.416C71.8918 131.981 72.5105 132.264 73.2571 132.264ZM86.3825 133.176C85.6892 133.176 85.0705 133.016 84.5265 132.696C83.9932 132.365 83.5718 131.901 83.2625 131.304C82.9638 130.696 82.8145 129.981 82.8145 129.16C82.8145 128.36 82.9638 127.661 83.2625 127.064C83.5718 126.467 83.9932 126.003 84.5265 125.672C85.0598 125.331 85.6678 125.16 86.3505 125.16C87.0438 125.16 87.6305 125.336 88.1105 125.688C88.6012 126.029 88.9745 126.477 89.2305 127.032C89.4865 127.576 89.6145 128.152 89.6145 128.76V129.08H83.7905C83.7692 130.04 83.9932 130.819 84.4625 131.416C84.9425 132.003 85.5878 132.296 86.3985 132.296C86.9958 132.296 87.4972 132.147 87.9025 131.848C88.3078 131.539 88.6385 131.085 88.8945 130.488L89.6945 130.952C89.0118 132.435 87.9078 133.176 86.3825 133.176ZM83.8545 128.248H88.6545C88.6012 127.832 88.4678 127.453 88.2545 127.112C88.0518 126.771 87.7852 126.499 87.4545 126.296C87.1345 126.093 86.7665 125.992 86.3505 125.992C85.6998 125.992 85.1505 126.195 84.7025 126.6C84.2652 126.995 83.9825 127.544 83.8545 128.248ZM91.9091 133V125.336H92.8691V133H91.9091ZM92.3891 123.672C92.1865 123.672 92.0105 123.603 91.8611 123.464C91.7118 123.315 91.6371 123.139 91.6371 122.936C91.6371 122.723 91.7118 122.547 91.8611 122.408C92.0105 122.269 92.1865 122.2 92.3891 122.2C92.5918 122.2 92.7625 122.269 92.9011 122.408C93.0398 122.547 93.1091 122.723 93.1091 122.936C93.1091 123.139 93.0398 123.315 92.9011 123.464C92.7625 123.603 92.5918 123.672 92.3891 123.672ZM98.0885 133.176C97.2778 133.176 96.6218 132.915 96.1205 132.392C95.6192 131.869 95.3685 131.123 95.3685 130.152V125.336H96.3285V130.024C96.3285 130.771 96.5045 131.331 96.8565 131.704C97.2192 132.077 97.6832 132.264 98.2485 132.264C98.8992 132.264 99.4272 132.061 99.8325 131.656C100.238 131.251 100.441 130.755 100.441 130.168V125.336H101.417V132.984H100.505L100.473 131.912C100.249 132.264 99.9285 132.563 99.5125 132.808C99.0965 133.053 98.6218 133.176 98.0885 133.176ZM106.417 133.176C105.735 133.176 105.116 133.043 104.561 132.776C104.007 132.509 103.559 132.131 103.217 131.64L103.921 131.048C104.177 131.443 104.524 131.747 104.961 131.96C105.409 132.173 105.905 132.28 106.449 132.28C106.972 132.28 107.415 132.168 107.777 131.944C108.151 131.709 108.337 131.347 108.337 130.856C108.337 130.419 108.161 130.115 107.809 129.944C107.457 129.773 106.919 129.613 106.193 129.464C105.745 129.368 105.319 129.251 104.913 129.112C104.519 128.973 104.199 128.765 103.953 128.488C103.708 128.2 103.585 127.805 103.585 127.304C103.585 126.845 103.708 126.456 103.953 126.136C104.209 125.816 104.545 125.571 104.961 125.4C105.377 125.229 105.82 125.144 106.289 125.144C107.548 125.144 108.471 125.592 109.057 126.488L108.401 127.08C107.964 126.387 107.265 126.04 106.305 126.04C105.751 126.04 105.324 126.163 105.025 126.408C104.727 126.643 104.577 126.936 104.577 127.288C104.577 127.683 104.737 127.965 105.057 128.136C105.388 128.296 105.895 128.451 106.577 128.6C107.057 128.707 107.505 128.84 107.921 129C108.348 129.16 108.689 129.384 108.945 129.672C109.201 129.96 109.329 130.36 109.329 130.872C109.329 131.555 109.063 132.109 108.529 132.536C108.007 132.963 107.303 133.176 106.417 133.176ZM111.122 133V125.336H112.034L112.082 126.536C112.252 126.141 112.535 125.811 112.93 125.544C113.324 125.277 113.772 125.144 114.274 125.144C114.892 125.144 115.399 125.288 115.794 125.576C116.199 125.864 116.471 126.264 116.61 126.776C116.791 126.307 117.079 125.917 117.474 125.608C117.868 125.299 118.375 125.144 118.994 125.144C119.783 125.144 120.402 125.395 120.85 125.896C121.298 126.387 121.522 127.128 121.522 128.12V133H120.546V128.264C120.546 127.453 120.391 126.883 120.082 126.552C119.772 126.221 119.356 126.056 118.834 126.056C118.428 126.056 118.071 126.163 117.762 126.376C117.463 126.579 117.228 126.851 117.058 127.192C116.898 127.523 116.818 127.885 116.818 128.28V133H115.842V128.264C115.842 127.453 115.682 126.883 115.362 126.552C115.052 126.221 114.636 126.056 114.114 126.056C113.708 126.056 113.351 126.163 113.042 126.376C112.743 126.589 112.508 126.867 112.338 127.208C112.178 127.539 112.098 127.891 112.098 128.264V133H111.122ZM127.023 133.176C126.34 133.176 125.732 133.005 125.199 132.664C124.665 132.323 124.244 131.853 123.935 131.256C123.625 130.648 123.471 129.949 123.471 129.16C123.471 128.371 123.625 127.677 123.935 127.08C124.244 126.472 124.665 125.997 125.199 125.656C125.732 125.315 126.34 125.144 127.023 125.144C127.716 125.144 128.329 125.315 128.863 125.656C129.396 125.997 129.817 126.472 130.127 127.08C130.436 127.677 130.591 128.371 130.591 129.16C130.591 129.949 130.436 130.648 130.127 131.256C129.817 131.853 129.396 132.323 128.863 132.664C128.329 133.005 127.716 133.176 127.023 133.176ZM127.023 132.264C127.524 132.264 127.967 132.136 128.351 131.88C128.745 131.624 129.055 131.267 129.279 130.808C129.503 130.339 129.615 129.789 129.615 129.16C129.615 128.531 129.503 127.987 129.279 127.528C129.055 127.059 128.745 126.696 128.351 126.44C127.967 126.184 127.524 126.056 127.023 126.056C126.276 126.056 125.657 126.339 125.167 126.904C124.687 127.459 124.447 128.211 124.447 129.16C124.447 130.099 124.687 130.851 125.167 131.416C125.657 131.981 126.276 132.264 127.023 132.264ZM135.648 133.176C134.965 133.176 134.357 133.011 133.824 132.68C133.29 132.339 132.869 131.869 132.56 131.272C132.25 130.664 132.096 129.96 132.096 129.16C132.096 128.36 132.25 127.661 132.56 127.064C132.869 126.467 133.29 126.003 133.824 125.672C134.357 125.331 134.965 125.16 135.648 125.16C136.224 125.16 136.736 125.299 137.184 125.576C137.632 125.843 137.989 126.211 138.256 126.68V121.448H139.232V133H138.336L138.32 131.592C138.042 132.083 137.674 132.472 137.216 132.76C136.757 133.037 136.234 133.176 135.648 133.176ZM135.68 132.264C136.181 132.264 136.624 132.136 137.008 131.88C137.402 131.624 137.712 131.267 137.936 130.808C138.16 130.339 138.272 129.789 138.272 129.16C138.272 128.531 138.16 127.987 137.936 127.528C137.712 127.069 137.402 126.712 137.008 126.456C136.624 126.2 136.181 126.072 135.68 126.072C135.178 126.072 134.73 126.2 134.336 126.456C133.941 126.712 133.632 127.069 133.408 127.528C133.184 127.987 133.072 128.531 133.072 129.16C133.072 129.789 133.184 130.339 133.408 130.808C133.632 131.267 133.941 131.624 134.336 131.88C134.73 132.136 135.178 132.264 135.68 132.264ZM149.098 133.176C148.415 133.176 147.903 133.032 147.562 132.744C147.221 132.456 147.05 131.939 147.05 131.192V126.232H145.386V125.336H147.05V122.52H148.01V125.336H150.346V126.232H148.01V131.032C148.01 131.512 148.111 131.843 148.314 132.024C148.517 132.195 148.831 132.28 149.258 132.28C149.439 132.28 149.631 132.253 149.834 132.2C150.037 132.147 150.207 132.088 150.346 132.024V132.968C150.197 133.021 150.005 133.069 149.77 133.112C149.535 133.155 149.311 133.176 149.098 133.176ZM155.273 133.176C154.58 133.176 153.961 133.016 153.417 132.696C152.884 132.365 152.462 131.901 152.153 131.304C151.854 130.696 151.705 129.981 151.705 129.16C151.705 128.36 151.854 127.661 152.153 127.064C152.462 126.467 152.884 126.003 153.417 125.672C153.95 125.331 154.558 125.16 155.241 125.16C155.934 125.16 156.521 125.336 157.001 125.688C157.492 126.029 157.865 126.477 158.121 127.032C158.377 127.576 158.505 128.152 158.505 128.76V129.08H152.681C152.66 130.04 152.884 130.819 153.353 131.416C153.833 132.003 154.478 132.296 155.289 132.296C155.886 132.296 156.388 132.147 156.793 131.848C157.198 131.539 157.529 131.085 157.785 130.488L158.585 130.952C157.902 132.435 156.798 133.176 155.273 133.176ZM152.745 128.248H157.545C157.492 127.832 157.358 127.453 157.145 127.112C156.942 126.771 156.676 126.499 156.345 126.296C156.025 126.093 155.657 125.992 155.241 125.992C154.59 125.992 154.041 126.195 153.593 126.6C153.156 126.995 152.873 127.544 152.745 128.248ZM160.528 133V125.336H161.44L161.488 126.536C161.658 126.141 161.941 125.811 162.336 125.544C162.73 125.277 163.178 125.144 163.68 125.144C164.298 125.144 164.805 125.288 165.2 125.576C165.605 125.864 165.877 126.264 166.016 126.776C166.197 126.307 166.485 125.917 166.88 125.608C167.274 125.299 167.781 125.144 168.4 125.144C169.189 125.144 169.808 125.395 170.256 125.896C170.704 126.387 170.928 127.128 170.928 128.12V133H169.952V128.264C169.952 127.453 169.797 126.883 169.488 126.552C169.178 126.221 168.762 126.056 168.24 126.056C167.834 126.056 167.477 126.163 167.168 126.376C166.869 126.579 166.634 126.851 166.464 127.192C166.304 127.523 166.224 127.885 166.224 128.28V133H165.248V128.264C165.248 127.453 165.088 126.883 164.768 126.552C164.458 126.221 164.042 126.056 163.52 126.056C163.114 126.056 162.757 126.163 162.448 126.376C162.149 126.589 161.914 126.867 161.744 127.208C161.584 127.539 161.504 127.891 161.504 128.264V133H160.528ZM173.309 136.328V125.336H174.205L174.237 126.728C174.514 126.227 174.882 125.837 175.341 125.56C175.8 125.283 176.322 125.144 176.909 125.144C177.592 125.144 178.2 125.315 178.733 125.656C179.266 125.987 179.682 126.456 179.981 127.064C180.29 127.661 180.445 128.36 180.445 129.16C180.445 129.96 180.29 130.664 179.981 131.272C179.682 131.869 179.266 132.339 178.733 132.68C178.2 133.011 177.592 133.176 176.909 133.176C176.333 133.176 175.821 133.037 175.373 132.76C174.925 132.483 174.562 132.109 174.285 131.64V136.328H173.309ZM176.893 132.264C177.394 132.264 177.837 132.136 178.221 131.88C178.616 131.624 178.925 131.267 179.149 130.808C179.373 130.339 179.485 129.789 179.485 129.16C179.485 128.531 179.373 127.987 179.149 127.528C178.925 127.059 178.616 126.696 178.221 126.44C177.837 126.184 177.394 126.056 176.893 126.056C176.136 126.056 175.512 126.339 175.021 126.904C174.53 127.459 174.285 128.211 174.285 129.16C174.285 130.099 174.53 130.851 175.021 131.416C175.512 131.981 176.136 132.264 176.893 132.264ZM185.523 133.176C184.84 133.176 184.232 133.005 183.699 132.664C183.165 132.323 182.744 131.853 182.435 131.256C182.125 130.648 181.971 129.949 181.971 129.16C181.971 128.371 182.125 127.677 182.435 127.08C182.744 126.472 183.165 125.997 183.699 125.656C184.232 125.315 184.84 125.144 185.523 125.144C186.216 125.144 186.829 125.315 187.363 125.656C187.896 125.997 188.317 126.472 188.627 127.08C188.936 127.677 189.091 128.371 189.091 129.16C189.091 129.949 188.936 130.648 188.627 131.256C188.317 131.853 187.896 132.323 187.363 132.664C186.829 133.005 186.216 133.176 185.523 133.176ZM185.523 132.264C186.024 132.264 186.467 132.136 186.851 131.88C187.245 131.624 187.555 131.267 187.779 130.808C188.003 130.339 188.115 129.789 188.115 129.16C188.115 128.531 188.003 127.987 187.779 127.528C187.555 127.059 187.245 126.696 186.851 126.44C186.467 126.184 186.024 126.056 185.523 126.056C184.776 126.056 184.157 126.339 183.667 126.904C183.187 127.459 182.947 128.211 182.947 129.16C182.947 130.099 183.187 130.851 183.667 131.416C184.157 131.981 184.776 132.264 185.523 132.264ZM191.028 133V125.336H191.956L192.004 126.664C192.217 126.216 192.553 125.853 193.012 125.576C193.481 125.288 193.998 125.144 194.564 125.144C194.713 125.144 194.862 125.155 195.012 125.176C195.172 125.187 195.305 125.208 195.412 125.24V126.184C195.316 126.163 195.177 126.141 194.996 126.12C194.825 126.099 194.649 126.088 194.468 126.088C194.02 126.088 193.609 126.195 193.236 126.408C192.862 126.611 192.564 126.888 192.34 127.24C192.126 127.581 192.02 127.971 192.02 128.408V133H191.028ZM201.8 133V125.336H202.76V133H201.8ZM202.28 123.672C202.077 123.672 201.901 123.603 201.752 123.464C201.602 123.315 201.528 123.139 201.528 122.936C201.528 122.723 201.602 122.547 201.752 122.408C201.901 122.269 202.077 122.2 202.28 122.2C202.482 122.2 202.653 122.269 202.792 122.408C202.93 122.547 203 122.723 203 122.936C203 123.139 202.93 123.315 202.792 123.464C202.653 123.603 202.482 123.672 202.28 123.672ZM205.387 133V125.336H206.299L206.331 126.424C206.576 126.061 206.902 125.757 207.307 125.512C207.723 125.267 208.192 125.144 208.715 125.144C209.536 125.144 210.198 125.405 210.699 125.928C211.2 126.451 211.451 127.197 211.451 128.168V133H210.491V128.312C210.491 127.565 210.31 127.005 209.947 126.632C209.595 126.259 209.136 126.072 208.571 126.072C208.144 126.072 207.76 126.168 207.419 126.36C207.088 126.541 206.827 126.792 206.635 127.112C206.454 127.421 206.363 127.768 206.363 128.152V133H205.387ZM216.96 133.176C216.278 133.176 215.67 133.011 215.136 132.68C214.603 132.339 214.182 131.864 213.872 131.256C213.563 130.648 213.408 129.949 213.408 129.16C213.408 128.371 213.563 127.677 213.872 127.08C214.182 126.472 214.603 126.003 215.136 125.672C215.67 125.331 216.278 125.16 216.96 125.16C217.504 125.16 218.006 125.272 218.464 125.496C218.934 125.709 219.334 126.029 219.664 126.456L218.896 127.032C218.416 126.392 217.771 126.072 216.96 126.072C216.214 126.072 215.595 126.355 215.104 126.92C214.624 127.475 214.384 128.221 214.384 129.16C214.384 130.099 214.624 130.851 215.104 131.416C215.595 131.981 216.214 132.264 216.96 132.264C217.771 132.264 218.416 131.944 218.896 131.304L219.664 131.88C218.982 132.744 218.08 133.176 216.96 133.176ZM221.878 133V125.336H222.838V133H221.878ZM222.358 123.672C222.155 123.672 221.979 123.603 221.83 123.464C221.681 123.315 221.606 123.139 221.606 122.936C221.606 122.723 221.681 122.547 221.83 122.408C221.979 122.269 222.155 122.2 222.358 122.2C222.561 122.2 222.731 122.269 222.87 122.408C223.009 122.547 223.078 122.723 223.078 122.936C223.078 123.139 223.009 123.315 222.87 123.464C222.731 123.603 222.561 123.672 222.358 123.672ZM228.585 133.176C227.903 133.176 227.295 133.011 226.761 132.68C226.228 132.339 225.807 131.869 225.497 131.272C225.188 130.664 225.033 129.96 225.033 129.16C225.033 128.36 225.188 127.661 225.497 127.064C225.807 126.467 226.228 126.003 226.761 125.672C227.295 125.331 227.903 125.16 228.585 125.16C229.161 125.16 229.673 125.299 230.121 125.576C230.569 125.843 230.927 126.211 231.193 126.68V121.448H232.169V133H231.273L231.257 131.592C230.98 132.083 230.612 132.472 230.153 132.76C229.695 133.037 229.172 133.176 228.585 133.176ZM228.617 132.264C229.119 132.264 229.561 132.136 229.945 131.88C230.34 131.624 230.649 131.267 230.873 130.808C231.097 130.339 231.209 129.789 231.209 129.16C231.209 128.531 231.097 127.987 230.873 127.528C230.649 127.069 230.34 126.712 229.945 126.456C229.561 126.2 229.119 126.072 228.617 126.072C228.116 126.072 227.668 126.2 227.273 126.456C226.879 126.712 226.569 127.069 226.345 127.528C226.121 127.987 226.009 128.531 226.009 129.16C226.009 129.789 226.121 130.339 226.345 130.808C226.569 131.267 226.879 131.624 227.273 131.88C227.668 132.136 228.116 132.264 228.617 132.264ZM234.831 133V125.336H235.791V133H234.831ZM235.311 123.672C235.108 123.672 234.932 123.603 234.783 123.464C234.634 123.315 234.559 123.139 234.559 122.936C234.559 122.723 234.634 122.547 234.783 122.408C234.932 122.269 235.108 122.2 235.311 122.2C235.514 122.2 235.684 122.269 235.823 122.408C235.962 122.547 236.031 122.723 236.031 122.936C236.031 123.139 235.962 123.315 235.823 123.464C235.684 123.603 235.514 123.672 235.311 123.672ZM241.538 133.176C240.856 133.176 240.248 133.011 239.714 132.68C239.181 132.339 238.76 131.869 238.45 131.272C238.141 130.664 237.986 129.96 237.986 129.16C237.986 128.36 238.141 127.661 238.45 127.064C238.76 126.467 239.181 126.003 239.714 125.672C240.248 125.331 240.856 125.16 241.538 125.16C242.114 125.16 242.626 125.299 243.074 125.576C243.522 125.843 243.88 126.211 244.146 126.68V121.448H245.122V133H244.226L244.21 131.592C243.933 132.083 243.565 132.472 243.106 132.76C242.648 133.037 242.125 133.176 241.538 133.176ZM241.57 132.264C242.072 132.264 242.514 132.136 242.898 131.88C243.293 131.624 243.602 131.267 243.826 130.808C244.05 130.339 244.162 129.789 244.162 129.16C244.162 128.531 244.05 127.987 243.826 127.528C243.602 127.069 243.293 126.712 242.898 126.456C242.514 126.2 242.072 126.072 241.57 126.072C241.069 126.072 240.621 126.2 240.226 126.456C239.832 126.712 239.522 127.069 239.298 127.528C239.074 127.987 238.962 128.531 238.962 129.16C238.962 129.789 239.074 130.339 239.298 130.808C239.522 131.267 239.832 131.624 240.226 131.88C240.621 132.136 241.069 132.264 241.57 132.264ZM250.104 133.176C249.293 133.176 248.637 132.915 248.136 132.392C247.635 131.869 247.384 131.123 247.384 130.152V125.336H248.344V130.024C248.344 130.771 248.52 131.331 248.872 131.704C249.235 132.077 249.699 132.264 250.264 132.264C250.915 132.264 251.443 132.061 251.848 131.656C252.253 131.251 252.456 130.755 252.456 130.168V125.336H253.432V132.984H252.52L252.488 131.912C252.264 132.264 251.944 132.563 251.528 132.808C251.112 133.053 250.637 133.176 250.104 133.176ZM255.809 133V125.336H256.721L256.753 126.424C256.998 126.061 257.324 125.757 257.729 125.512C258.145 125.267 258.614 125.144 259.137 125.144C259.958 125.144 260.62 125.405 261.121 125.928C261.622 126.451 261.873 127.197 261.873 128.168V133H260.913V128.312C260.913 127.565 260.732 127.005 260.369 126.632C260.017 126.259 259.558 126.072 258.993 126.072C258.566 126.072 258.182 126.168 257.841 126.36C257.51 126.541 257.249 126.792 257.057 127.112C256.876 127.421 256.785 127.768 256.785 128.152V133H255.809ZM266.942 133.176C266.259 133.176 265.747 133.032 265.406 132.744C265.064 132.456 264.894 131.939 264.894 131.192V126.232H263.23V125.336H264.894V122.52H265.854V125.336H268.19V126.232H265.854V131.032C265.854 131.512 265.955 131.843 266.158 132.024C266.36 132.195 266.675 132.28 267.102 132.28C267.283 132.28 267.475 132.253 267.678 132.2C267.88 132.147 268.051 132.088 268.19 132.024V132.968C268.04 133.021 267.848 133.069 267.614 133.112C267.379 133.155 267.155 133.176 266.942 133.176ZM277.057 133.176C276.247 133.176 275.591 132.915 275.089 132.392C274.588 131.869 274.337 131.123 274.337 130.152V125.336H275.297V130.024C275.297 130.771 275.473 131.331 275.825 131.704C276.188 132.077 276.652 132.264 277.217 132.264C277.868 132.264 278.396 132.061 278.801 131.656C279.207 131.251 279.409 130.755 279.409 130.168V125.336H280.385V132.984H279.473L279.441 131.912C279.217 132.264 278.897 132.563 278.481 132.808C278.065 133.053 277.591 133.176 277.057 133.176ZM285.754 133.176C285.071 133.176 284.559 133.032 284.218 132.744C283.877 132.456 283.706 131.939 283.706 131.192V126.232H282.042V125.336H283.706V122.52H284.666V125.336H287.002V126.232H284.666V131.032C284.666 131.512 284.767 131.843 284.97 132.024C285.173 132.195 285.487 132.28 285.914 132.28C286.095 132.28 286.287 132.253 286.49 132.2C286.693 132.147 286.863 132.088 287.002 132.024V132.968C286.853 133.021 286.661 133.069 286.426 133.112C286.191 133.155 285.967 133.176 285.754 133.176ZM293.278 133V121.448H294.254V133H293.278ZM298.685 133.144C297.938 133.155 297.33 132.984 296.861 132.632C296.402 132.28 296.173 131.768 296.173 131.096C296.173 130.584 296.344 130.136 296.685 129.752C297.037 129.368 297.48 129.069 298.013 128.856C298.557 128.632 299.117 128.52 299.693 128.52C300.482 128.52 301.106 128.707 301.565 129.08V127.768C301.565 127.053 301.416 126.589 301.117 126.376C300.818 126.152 300.338 126.04 299.677 126.04C299.25 126.04 298.776 126.12 298.253 126.28C297.73 126.429 297.288 126.621 296.925 126.856L296.461 126.088C296.877 125.821 297.378 125.597 297.965 125.416C298.562 125.235 299.133 125.144 299.677 125.144C300.648 125.144 301.362 125.331 301.821 125.704C302.28 126.077 302.509 126.765 302.509 127.768V132.008C302.509 132.211 302.562 132.328 302.669 132.36C302.786 132.381 303.037 132.355 303.421 132.28V132.968C303.314 133.011 303.17 133.048 302.989 133.08C302.808 133.123 302.637 133.144 302.477 133.144C302.114 133.144 301.88 133.069 301.773 132.92C301.666 132.771 301.602 132.488 301.581 132.072C301.25 132.435 300.813 132.701 300.269 132.872C299.725 133.043 299.197 133.133 298.685 133.144ZM298.733 132.264C299.245 132.253 299.72 132.173 300.157 132.024C300.605 131.875 300.957 131.661 301.213 131.384C301.48 131.096 301.602 130.749 301.581 130.344C301.549 130.013 301.368 129.768 301.037 129.608C300.706 129.437 300.28 129.357 299.757 129.368C299.32 129.368 298.898 129.443 298.493 129.592C298.088 129.741 297.757 129.949 297.501 130.216C297.256 130.472 297.133 130.771 297.133 131.112C297.133 131.507 297.282 131.8 297.581 131.992C297.88 132.173 298.264 132.264 298.733 132.264ZM308.8 133.176C308.213 133.176 307.69 133.037 307.232 132.76C306.773 132.472 306.405 132.083 306.128 131.592L306.096 133H305.2V121.448H306.176V126.68C306.453 126.211 306.816 125.843 307.264 125.576C307.712 125.299 308.224 125.16 308.8 125.16C309.482 125.16 310.09 125.331 310.624 125.672C311.157 126.003 311.573 126.467 311.872 127.064C312.181 127.661 312.336 128.36 312.336 129.16C312.336 129.96 312.181 130.664 311.872 131.272C311.573 131.869 311.157 132.339 310.624 132.68C310.09 133.011 309.482 133.176 308.8 133.176ZM308.784 132.264C309.285 132.264 309.728 132.136 310.112 131.88C310.506 131.624 310.816 131.267 311.04 130.808C311.264 130.339 311.376 129.789 311.376 129.16C311.376 128.531 311.264 127.987 311.04 127.528C310.816 127.069 310.506 126.712 310.112 126.456C309.728 126.2 309.285 126.072 308.784 126.072C308.026 126.072 307.402 126.355 306.912 126.92C306.421 127.475 306.176 128.221 306.176 129.16C306.176 130.099 306.421 130.851 306.912 131.416C307.402 131.981 308.026 132.264 308.784 132.264ZM317.413 133.176C316.731 133.176 316.123 133.005 315.589 132.664C315.056 132.323 314.635 131.853 314.325 131.256C314.016 130.648 313.861 129.949 313.861 129.16C313.861 128.371 314.016 127.677 314.325 127.08C314.635 126.472 315.056 125.997 315.589 125.656C316.123 125.315 316.731 125.144 317.413 125.144C318.107 125.144 318.72 125.315 319.253 125.656C319.787 125.997 320.208 126.472 320.517 127.08C320.827 127.677 320.981 128.371 320.981 129.16C320.981 129.949 320.827 130.648 320.517 131.256C320.208 131.853 319.787 132.323 319.253 132.664C318.72 133.005 318.107 133.176 317.413 133.176ZM317.413 132.264C317.915 132.264 318.357 132.136 318.741 131.88C319.136 131.624 319.445 131.267 319.669 130.808C319.893 130.339 320.005 129.789 320.005 129.16C320.005 128.531 319.893 127.987 319.669 127.528C319.445 127.059 319.136 126.696 318.741 126.44C318.357 126.184 317.915 126.056 317.413 126.056C316.667 126.056 316.048 126.339 315.557 126.904C315.077 127.459 314.837 128.211 314.837 129.16C314.837 130.099 315.077 130.851 315.557 131.416C316.048 131.981 316.667 132.264 317.413 132.264ZM322.918 133V125.336H323.846L323.894 126.664C324.108 126.216 324.444 125.853 324.902 125.576C325.372 125.288 325.889 125.144 326.454 125.144C326.604 125.144 326.753 125.155 326.902 125.176C327.062 125.187 327.196 125.208 327.302 125.24V126.184C327.206 126.163 327.068 126.141 326.886 126.12C326.716 126.099 326.54 126.088 326.358 126.088C325.91 126.088 325.5 126.195 325.126 126.408C324.753 126.611 324.454 126.888 324.23 127.24C324.017 127.581 323.91 127.971 323.91 128.408V133H322.918ZM332.07 133.176C331.377 133.176 330.758 133.016 330.214 132.696C329.681 132.365 329.259 131.901 328.95 131.304C328.651 130.696 328.502 129.981 328.502 129.16C328.502 128.36 328.651 127.661 328.95 127.064C329.259 126.467 329.681 126.003 330.214 125.672C330.747 125.331 331.355 125.16 332.038 125.16C332.731 125.16 333.318 125.336 333.798 125.688C334.289 126.029 334.662 126.477 334.918 127.032C335.174 127.576 335.302 128.152 335.302 128.76V129.08H329.478C329.457 130.04 329.681 130.819 330.15 131.416C330.63 132.003 331.275 132.296 332.086 132.296C332.683 132.296 333.185 132.147 333.59 131.848C333.995 131.539 334.326 131.085 334.582 130.488L335.382 130.952C334.699 132.435 333.595 133.176 332.07 133.176ZM329.542 128.248H334.342C334.289 127.832 334.155 127.453 333.942 127.112C333.739 126.771 333.473 126.499 333.142 126.296C332.822 126.093 332.454 125.992 332.038 125.992C331.387 125.992 330.838 126.195 330.39 126.6C329.953 126.995 329.67 127.544 329.542 128.248ZM344.945 133.176C344.252 133.176 343.633 133.016 343.089 132.696C342.556 132.365 342.134 131.901 341.825 131.304C341.526 130.696 341.377 129.981 341.377 129.16C341.377 128.36 341.526 127.661 341.825 127.064C342.134 126.467 342.556 126.003 343.089 125.672C343.622 125.331 344.23 125.16 344.913 125.16C345.606 125.16 346.193 125.336 346.673 125.688C347.164 126.029 347.537 126.477 347.793 127.032C348.049 127.576 348.177 128.152 348.177 128.76V129.08H342.353C342.332 130.04 342.556 130.819 343.025 131.416C343.505 132.003 344.15 132.296 344.961 132.296C345.558 132.296 346.06 132.147 346.465 131.848C346.87 131.539 347.201 131.085 347.457 130.488L348.257 130.952C347.574 132.435 346.47 133.176 344.945 133.176ZM342.417 128.248H347.217C347.164 127.832 347.03 127.453 346.817 127.112C346.614 126.771 346.348 126.499 346.017 126.296C345.697 126.093 345.329 125.992 344.913 125.992C344.262 125.992 343.713 126.195 343.265 126.6C342.828 126.995 342.545 127.544 342.417 128.248ZM353.192 133.176C352.509 133.176 351.997 133.032 351.656 132.744C351.314 132.456 351.144 131.939 351.144 131.192V126.232H349.48V125.336H351.144V122.52H352.104V125.336H354.44V126.232H352.104V131.032C352.104 131.512 352.205 131.843 352.408 132.024C352.61 132.195 352.925 132.28 353.352 132.28C353.533 132.28 353.725 132.253 353.928 132.2C354.13 132.147 354.301 132.088 354.44 132.024V132.968C354.29 133.021 354.098 133.069 353.864 133.112C353.629 133.155 353.405 133.176 353.192 133.176ZM4.304 161.176C3.62133 161.176 3.01333 161.011 2.48 160.68C1.94667 160.339 1.52533 159.869 1.216 159.272C0.906667 158.664 0.752 157.96 0.752 157.16C0.752 156.36 0.906667 155.661 1.216 155.064C1.52533 154.467 1.94667 154.003 2.48 153.672C3.01333 153.331 3.62133 153.16 4.304 153.16C4.88 153.16 5.392 153.299 5.84 153.576C6.288 153.843 6.64533 154.211 6.912 154.68V149.448H7.888V161H6.992L6.976 159.592C6.69867 160.083 6.33067 160.472 5.872 160.76C5.41333 161.037 4.89067 161.176 4.304 161.176ZM4.336 160.264C4.83733 160.264 5.28 160.136 5.664 159.88C6.05867 159.624 6.368 159.267 6.592 158.808C6.816 158.339 6.928 157.789 6.928 157.16C6.928 156.531 6.816 155.987 6.592 155.528C6.368 155.069 6.05867 154.712 5.664 154.456C5.28 154.2 4.83733 154.072 4.336 154.072C3.83467 154.072 3.38667 154.2 2.992 154.456C2.59733 154.712 2.288 155.069 2.064 155.528C1.84 155.987 1.728 156.531 1.728 157.16C1.728 157.789 1.84 158.339 2.064 158.808C2.288 159.267 2.59733 159.624 2.992 159.88C3.38667 160.136 3.83467 160.264 4.336 160.264ZM13.3978 161.176C12.7151 161.176 12.1071 161.005 11.5738 160.664C11.0404 160.323 10.6191 159.853 10.3098 159.256C10.0004 158.648 9.84575 157.949 9.84575 157.16C9.84575 156.371 10.0004 155.677 10.3098 155.08C10.6191 154.472 11.0404 153.997 11.5738 153.656C12.1071 153.315 12.7151 153.144 13.3978 153.144C14.0911 153.144 14.7044 153.315 15.2378 153.656C15.7711 153.997 16.1924 154.472 16.5018 155.08C16.8111 155.677 16.9658 156.371 16.9658 157.16C16.9658 157.949 16.8111 158.648 16.5018 159.256C16.1924 159.853 15.7711 160.323 15.2378 160.664C14.7044 161.005 14.0911 161.176 13.3978 161.176ZM13.3978 160.264C13.8991 160.264 14.3418 160.136 14.7258 159.88C15.1204 159.624 15.4298 159.267 15.6538 158.808C15.8778 158.339 15.9898 157.789 15.9898 157.16C15.9898 156.531 15.8778 155.987 15.6538 155.528C15.4298 155.059 15.1204 154.696 14.7258 154.44C14.3418 154.184 13.8991 154.056 13.3978 154.056C12.6511 154.056 12.0324 154.339 11.5418 154.904C11.0618 155.459 10.8218 156.211 10.8218 157.16C10.8218 158.099 11.0618 158.851 11.5418 159.416C12.0324 159.981 12.6511 160.264 13.3978 160.264ZM18.9028 161V149.448H19.8788V161H18.9028ZM25.3821 161.176C24.6995 161.176 24.0915 161.005 23.5581 160.664C23.0248 160.323 22.6035 159.853 22.2941 159.256C21.9848 158.648 21.8301 157.949 21.8301 157.16C21.8301 156.371 21.9848 155.677 22.2941 155.08C22.6035 154.472 23.0248 153.997 23.5581 153.656C24.0915 153.315 24.6995 153.144 25.3821 153.144C26.0755 153.144 26.6888 153.315 27.2221 153.656C27.7555 153.997 28.1768 154.472 28.4861 155.08C28.7955 155.677 28.9501 156.371 28.9501 157.16C28.9501 157.949 28.7955 158.648 28.4861 159.256C28.1768 159.853 27.7555 160.323 27.2221 160.664C26.6888 161.005 26.0755 161.176 25.3821 161.176ZM25.3821 160.264C25.8835 160.264 26.3261 160.136 26.7101 159.88C27.1048 159.624 27.4141 159.267 27.6381 158.808C27.8621 158.339 27.9741 157.789 27.9741 157.16C27.9741 156.531 27.8621 155.987 27.6381 155.528C27.4141 155.059 27.1048 154.696 26.7101 154.44C26.3261 154.184 25.8835 154.056 25.3821 154.056C24.6355 154.056 24.0168 154.339 23.5261 154.904C23.0461 155.459 22.8061 156.211 22.8061 157.16C22.8061 158.099 23.0461 158.851 23.5261 159.416C24.0168 159.981 24.6355 160.264 25.3821 160.264ZM30.8871 161V153.336H31.8151L31.8631 154.664C32.0765 154.216 32.4125 153.853 32.8711 153.576C33.3405 153.288 33.8578 153.144 34.4231 153.144C34.5725 153.144 34.7218 153.155 34.8711 153.176C35.0311 153.187 35.1645 153.208 35.2711 153.24V154.184C35.1751 154.163 35.0365 154.141 34.8551 154.12C34.6845 154.099 34.5085 154.088 34.3271 154.088C33.8791 154.088 33.4685 154.195 33.0951 154.408C32.7218 154.611 32.4231 154.888 32.1991 155.24C31.9858 155.581 31.8791 155.971 31.8791 156.408V161H30.8871ZM40.0388 161.176C39.3454 161.176 38.7268 161.016 38.1828 160.696C37.6494 160.365 37.2281 159.901 36.9188 159.304C36.6201 158.696 36.4708 157.981 36.4708 157.16C36.4708 156.36 36.6201 155.661 36.9188 155.064C37.2281 154.467 37.6494 154.003 38.1828 153.672C38.7161 153.331 39.3241 153.16 40.0068 153.16C40.7001 153.16 41.2868 153.336 41.7668 153.688C42.2574 154.029 42.6308 154.477 42.8868 155.032C43.1428 155.576 43.2708 156.152 43.2708 156.76V157.08H37.4468C37.4254 158.04 37.6494 158.819 38.1188 159.416C38.5988 160.003 39.2441 160.296 40.0548 160.296C40.6521 160.296 41.1534 160.147 41.5588 159.848C41.9641 159.539 42.2948 159.085 42.5508 158.488L43.3508 158.952C42.6681 160.435 41.5641 161.176 40.0388 161.176ZM37.5108 156.248H42.3108C42.2574 155.832 42.1241 155.453 41.9108 155.112C41.7081 154.771 41.4414 154.499 41.1108 154.296C40.7908 154.093 40.4228 153.992 40.0068 153.992C39.3561 153.992 38.8068 154.195 38.3588 154.6C37.9214 154.995 37.6388 155.544 37.5108 156.248ZM49.7778 161V153.336H50.6898L50.7378 154.536C50.9084 154.141 51.1911 153.811 51.5858 153.544C51.9804 153.277 52.4284 153.144 52.9298 153.144C53.5484 153.144 54.0551 153.288 54.4498 153.576C54.8551 153.864 55.1271 154.264 55.2658 154.776C55.4471 154.307 55.7351 153.917 56.1298 153.608C56.5244 153.299 57.0311 153.144 57.6498 153.144C58.4391 153.144 59.0578 153.395 59.5058 153.896C59.9538 154.387 60.1778 155.128 60.1778 156.12V161H59.2018V156.264C59.2018 155.453 59.0471 154.883 58.7378 154.552C58.4284 154.221 58.0124 154.056 57.4898 154.056C57.0844 154.056 56.7271 154.163 56.4178 154.376C56.1191 154.579 55.8844 154.851 55.7138 155.192C55.5538 155.523 55.4738 155.885 55.4738 156.28V161H54.4978V156.264C54.4978 155.453 54.3378 154.883 54.0178 154.552C53.7084 154.221 53.2924 154.056 52.7698 154.056C52.3644 154.056 52.0071 154.163 51.6978 154.376C51.3991 154.589 51.1644 154.867 50.9938 155.208C50.8338 155.539 50.7538 155.891 50.7538 156.264V161H49.7778ZM64.607 161.144C63.8603 161.155 63.2523 160.984 62.783 160.632C62.3243 160.28 62.095 159.768 62.095 159.096C62.095 158.584 62.2657 158.136 62.607 157.752C62.959 157.368 63.4017 157.069 63.935 156.856C64.479 156.632 65.039 156.52 65.615 156.52C66.4043 156.52 67.0283 156.707 67.487 157.08V155.768C67.487 155.053 67.3377 154.589 67.039 154.376C66.7403 154.152 66.2603 154.04 65.599 154.04C65.1723 154.04 64.6977 154.12 64.175 154.28C63.6523 154.429 63.2097 154.621 62.847 154.856L62.383 154.088C62.799 153.821 63.3003 153.597 63.887 153.416C64.4843 153.235 65.055 153.144 65.599 153.144C66.5697 153.144 67.2843 153.331 67.743 153.704C68.2017 154.077 68.431 154.765 68.431 155.768V160.008C68.431 160.211 68.4843 160.328 68.591 160.36C68.7083 160.381 68.959 160.355 69.343 160.28V160.968C69.2363 161.011 69.0923 161.048 68.911 161.08C68.7297 161.123 68.559 161.144 68.399 161.144C68.0363 161.144 67.8017 161.069 67.695 160.92C67.5883 160.771 67.5243 160.488 67.503 160.072C67.1723 160.435 66.735 160.701 66.191 160.872C65.647 161.043 65.119 161.133 64.607 161.144ZM64.655 160.264C65.167 160.253 65.6417 160.173 66.079 160.024C66.527 159.875 66.879 159.661 67.135 159.384C67.4017 159.096 67.5243 158.749 67.503 158.344C67.471 158.013 67.2897 157.768 66.959 157.608C66.6283 157.437 66.2017 157.357 65.679 157.368C65.2417 157.368 64.8203 157.443 64.415 157.592C64.0097 157.741 63.679 157.949 63.423 158.216C63.1777 158.472 63.055 158.771 63.055 159.112C63.055 159.507 63.2043 159.8 63.503 159.992C63.8017 160.173 64.1857 160.264 64.655 160.264ZM73.817 164.456C72.3983 164.456 71.3317 163.901 70.617 162.792L71.417 162.264C71.9503 163.107 72.7503 163.528 73.817 163.528C74.6063 163.528 75.209 163.267 75.625 162.744C76.041 162.232 76.249 161.459 76.249 160.424V159.048C75.9823 159.464 75.6357 159.795 75.209 160.04C74.7823 160.275 74.297 160.392 73.753 160.392C73.1023 160.392 72.521 160.243 72.009 159.944C71.5077 159.645 71.1077 159.224 70.809 158.68C70.521 158.136 70.377 157.496 70.377 156.76C70.377 156.024 70.521 155.389 70.809 154.856C71.1077 154.312 71.5077 153.891 72.009 153.592C72.521 153.293 73.1023 153.144 73.753 153.144C74.3077 153.144 74.8037 153.272 75.241 153.528C75.6783 153.773 76.0303 154.115 76.297 154.552L76.313 153.336H77.209V160.424C77.209 161.811 76.8943 162.829 76.265 163.48C75.6463 164.131 74.8303 164.456 73.817 164.456ZM73.801 159.496C74.281 159.496 74.7077 159.384 75.081 159.16C75.4543 158.925 75.7477 158.605 75.961 158.2C76.1743 157.784 76.281 157.304 76.281 156.76C76.281 156.216 76.1743 155.741 75.961 155.336C75.7477 154.931 75.4543 154.616 75.081 154.392C74.7077 154.157 74.281 154.04 73.801 154.04C73.3317 154.04 72.9103 154.157 72.537 154.392C72.1743 154.616 71.8863 154.931 71.673 155.336C71.4597 155.741 71.353 156.216 71.353 156.76C71.353 157.304 71.4597 157.784 71.673 158.2C71.8863 158.605 72.1743 158.925 72.537 159.16C72.9103 159.384 73.3317 159.496 73.801 159.496ZM79.5903 161V153.336H80.5023L80.5343 154.424C80.7796 154.061 81.1049 153.757 81.5103 153.512C81.9263 153.267 82.3956 153.144 82.9183 153.144C83.7396 153.144 84.4009 153.405 84.9023 153.928C85.4036 154.451 85.6543 155.197 85.6543 156.168V161H84.6943V156.312C84.6943 155.565 84.5129 155.005 84.1503 154.632C83.7983 154.259 83.3396 154.072 82.7743 154.072C82.3476 154.072 81.9636 154.168 81.6223 154.36C81.2916 154.541 81.0303 154.792 80.8383 155.112C80.6569 155.421 80.5663 155.768 80.5663 156.152V161H79.5903ZM90.0914 161.144C89.3447 161.155 88.7367 160.984 88.2674 160.632C87.8087 160.28 87.5794 159.768 87.5794 159.096C87.5794 158.584 87.75 158.136 88.0914 157.752C88.4434 157.368 88.886 157.069 89.4194 156.856C89.9634 156.632 90.5234 156.52 91.0994 156.52C91.8887 156.52 92.5127 156.707 92.9714 157.08V155.768C92.9714 155.053 92.822 154.589 92.5234 154.376C92.2247 154.152 91.7447 154.04 91.0834 154.04C90.6567 154.04 90.182 154.12 89.6594 154.28C89.1367 154.429 88.694 154.621 88.3314 154.856L87.8674 154.088C88.2834 153.821 88.7847 153.597 89.3714 153.416C89.9687 153.235 90.5394 153.144 91.0834 153.144C92.054 153.144 92.7687 153.331 93.2274 153.704C93.686 154.077 93.9154 154.765 93.9154 155.768V160.008C93.9154 160.211 93.9687 160.328 94.0754 160.36C94.1927 160.381 94.4434 160.355 94.8274 160.28V160.968C94.7207 161.011 94.5767 161.048 94.3954 161.08C94.214 161.123 94.0434 161.144 93.8834 161.144C93.5207 161.144 93.286 161.069 93.1794 160.92C93.0727 160.771 93.0087 160.488 92.9874 160.072C92.6567 160.435 92.2194 160.701 91.6754 160.872C91.1314 161.043 90.6034 161.133 90.0914 161.144ZM90.1394 160.264C90.6514 160.253 91.126 160.173 91.5634 160.024C92.0114 159.875 92.3634 159.661 92.6194 159.384C92.886 159.096 93.0087 158.749 92.9874 158.344C92.9554 158.013 92.774 157.768 92.4434 157.608C92.1127 157.437 91.686 157.357 91.1634 157.368C90.726 157.368 90.3047 157.443 89.8994 157.592C89.494 157.741 89.1634 157.949 88.9074 158.216C88.662 158.472 88.5394 158.771 88.5394 159.112C88.5394 159.507 88.6887 159.8 88.9874 159.992C89.286 160.173 89.67 160.264 90.1394 160.264ZM103.138 161.144C102.392 161.155 101.784 160.984 101.314 160.632C100.856 160.28 100.626 159.768 100.626 159.096C100.626 158.584 100.797 158.136 101.138 157.752C101.49 157.368 101.933 157.069 102.466 156.856C103.01 156.632 103.57 156.52 104.146 156.52C104.936 156.52 105.56 156.707 106.018 157.08V155.768C106.018 155.053 105.869 154.589 105.57 154.376C105.272 154.152 104.792 154.04 104.13 154.04C103.704 154.04 103.229 154.12 102.706 154.28C102.184 154.429 101.741 154.621 101.378 154.856L100.914 154.088C101.33 153.821 101.832 153.597 102.418 153.416C103.016 153.235 103.586 153.144 104.13 153.144C105.101 153.144 105.816 153.331 106.274 153.704C106.733 154.077 106.962 154.765 106.962 155.768V160.008C106.962 160.211 107.016 160.328 107.122 160.36C107.24 160.381 107.49 160.355 107.874 160.28V160.968C107.768 161.011 107.624 161.048 107.442 161.08C107.261 161.123 107.09 161.144 106.93 161.144C106.568 161.144 106.333 161.069 106.226 160.92C106.12 160.771 106.056 160.488 106.034 160.072C105.704 160.435 105.266 160.701 104.722 160.872C104.178 161.043 103.65 161.133 103.138 161.144ZM103.186 160.264C103.698 160.253 104.173 160.173 104.61 160.024C105.058 159.875 105.41 159.661 105.666 159.384C105.933 159.096 106.056 158.749 106.034 158.344C106.002 158.013 105.821 157.768 105.49 157.608C105.16 157.437 104.733 157.357 104.21 157.368C103.773 157.368 103.352 157.443 102.946 157.592C102.541 157.741 102.21 157.949 101.954 158.216C101.709 158.472 101.586 158.771 101.586 159.112C101.586 159.507 101.736 159.8 102.034 159.992C102.333 160.173 102.717 160.264 103.186 160.264ZM109.653 161V149.448H110.629V161H109.653ZM113.284 161V153.336H114.244V161H113.284ZM113.764 151.672C113.561 151.672 113.385 151.603 113.236 151.464C113.087 151.315 113.012 151.139 113.012 150.936C113.012 150.723 113.087 150.547 113.236 150.408C113.385 150.269 113.561 150.2 113.764 150.2C113.967 150.2 114.137 150.269 114.276 150.408C114.415 150.547 114.484 150.723 114.484 150.936C114.484 151.139 114.415 151.315 114.276 151.464C114.137 151.603 113.967 151.672 113.764 151.672ZM122.6 164.328V159.64C122.333 160.109 121.976 160.483 121.528 160.76C121.08 161.037 120.568 161.176 119.992 161.176C119.309 161.176 118.701 161.011 118.168 160.68C117.634 160.339 117.213 159.869 116.904 159.272C116.594 158.664 116.44 157.96 116.44 157.16C116.44 156.36 116.594 155.661 116.904 155.064C117.213 154.456 117.634 153.987 118.168 153.656C118.701 153.315 119.309 153.144 119.992 153.144C120.578 153.144 121.101 153.283 121.56 153.56C122.018 153.837 122.386 154.227 122.664 154.728L122.68 153.336H123.576V164.328H122.6ZM120.024 160.264C120.525 160.264 120.968 160.136 121.352 159.88C121.746 159.624 122.056 159.267 122.28 158.808C122.504 158.339 122.616 157.789 122.616 157.16C122.616 156.531 122.504 155.987 122.28 155.528C122.056 155.059 121.746 154.696 121.352 154.44C120.968 154.184 120.525 154.056 120.024 154.056C119.522 154.056 119.074 154.184 118.68 154.44C118.285 154.696 117.976 155.059 117.752 155.528C117.528 155.987 117.416 156.531 117.416 157.16C117.416 157.789 117.528 158.339 117.752 158.808C117.976 159.267 118.285 159.624 118.68 159.88C119.074 160.136 119.522 160.264 120.024 160.264ZM128.557 161.176C127.747 161.176 127.091 160.915 126.589 160.392C126.088 159.869 125.837 159.123 125.837 158.152V153.336H126.797V158.024C126.797 158.771 126.973 159.331 127.325 159.704C127.688 160.077 128.152 160.264 128.717 160.264C129.368 160.264 129.896 160.061 130.301 159.656C130.707 159.251 130.909 158.755 130.909 158.168V153.336H131.885V160.984H130.973L130.941 159.912C130.717 160.264 130.397 160.563 129.981 160.808C129.565 161.053 129.091 161.176 128.557 161.176ZM136.31 161.144C135.563 161.155 134.955 160.984 134.486 160.632C134.027 160.28 133.798 159.768 133.798 159.096C133.798 158.584 133.969 158.136 134.31 157.752C134.662 157.368 135.105 157.069 135.638 156.856C136.182 156.632 136.742 156.52 137.318 156.52C138.107 156.52 138.731 156.707 139.19 157.08V155.768C139.19 155.053 139.041 154.589 138.742 154.376C138.443 154.152 137.963 154.04 137.302 154.04C136.875 154.04 136.401 154.12 135.878 154.28C135.355 154.429 134.913 154.621 134.55 154.856L134.086 154.088C134.502 153.821 135.003 153.597 135.59 153.416C136.187 153.235 136.758 153.144 137.302 153.144C138.273 153.144 138.987 153.331 139.446 153.704C139.905 154.077 140.134 154.765 140.134 155.768V160.008C140.134 160.211 140.187 160.328 140.294 160.36C140.411 160.381 140.662 160.355 141.046 160.28V160.968C140.939 161.011 140.795 161.048 140.614 161.08C140.433 161.123 140.262 161.144 140.102 161.144C139.739 161.144 139.505 161.069 139.398 160.92C139.291 160.771 139.227 160.488 139.206 160.072C138.875 160.435 138.438 160.701 137.894 160.872C137.35 161.043 136.822 161.133 136.31 161.144ZM136.358 160.264C136.87 160.253 137.345 160.173 137.782 160.024C138.23 159.875 138.582 159.661 138.838 159.384C139.105 159.096 139.227 158.749 139.206 158.344C139.174 158.013 138.993 157.768 138.662 157.608C138.331 157.437 137.905 157.357 137.382 157.368C136.945 157.368 136.523 157.443 136.118 157.592C135.713 157.741 135.382 157.949 135.126 158.216C134.881 158.472 134.758 158.771 134.758 159.112C134.758 159.507 134.907 159.8 135.206 159.992C135.505 160.173 135.889 160.264 136.358 160.264ZM143.593 161.176C143.337 161.176 143.123 161.091 142.953 160.92C142.782 160.739 142.697 160.531 142.697 160.296C142.697 160.051 142.782 159.843 142.953 159.672C143.123 159.491 143.337 159.4 143.593 159.4C143.838 159.4 144.046 159.491 144.217 159.672C144.387 159.843 144.473 160.051 144.473 160.296C144.473 160.531 144.387 160.739 144.217 160.92C144.046 161.091 143.838 161.176 143.593 161.176Z" fill="white"/>
</svg>
